<svg width="3.804688" height="17.121094" viewBox="0 0 3.80469 17.1211" fill="none" xmlns="http://www.w3.org/2000/svg" xmlns:xlink="http://www.w3.org/1999/xlink">
	<desc>
			Created with Pixso.
	</desc>
	<defs/>
	<path id="패스 6162" d="M1.90234 0.951172C1.37695 0.951172 0.951172 1.37695 0.951172 1.90234C0.951172 2.42773 1.37695 2.85352 1.90234 2.85352C2.42773 2.85352 2.85352 2.42773 2.85352 1.90234C2.85352 1.37695 2.42773 0.951172 1.90234 0.951172Z" stroke="#7D6E42" stroke-width="1.902344" stroke-linejoin="round"/>
	<path id="패스 6163" d="M1.90234 7.60938C1.37695 7.60938 0.951172 8.03516 0.951172 8.56055C0.951172 9.08594 1.37695 9.51172 1.90234 9.51172C2.42773 9.51172 2.85352 9.08594 2.85352 8.56055C2.85352 8.03516 2.42773 7.60938 1.90234 7.60938Z" stroke="#7D6E42" stroke-width="1.902344" stroke-linejoin="round"/>
	<path id="패스 6164" d="M1.90234 14.2676C1.37695 14.2676 0.951172 14.6934 0.951172 15.2188C0.951172 15.7441 1.37695 16.1699 1.90234 16.1699C2.42773 16.1699 2.85352 15.7441 2.85352 15.2188C2.85352 14.6934 2.42773 14.2676 1.90234 14.2676Z" stroke="#7D6E42" stroke-width="1.902344" stroke-linejoin="round"/>
</svg>
