<svg width="72.000000" height="72.000000" viewBox="0 0 72 72" fill="none" xmlns="http://www.w3.org/2000/svg" xmlns:xlink="http://www.w3.org/1999/xlink">
	<desc>
			Created with Pixso.
	</desc>
	<defs>
		<filter id="filter_1_32_dd" x="0.000000" y="0.000000" width="72.000000" height="72.000000" filterUnits="userSpaceOnUse" color-interpolation-filters="sRGB">
			<feFlood flood-opacity="0" result="BackgroundImageFix"/>
			<feColorMatrix in="SourceAlpha" type="matrix" values="0 0 0 0 0 0 0 0 0 0 0 0 0 0 0 0 0 0 127 0" result="hardAlpha"/>
			<feOffset dx="0" dy="3"/>
			<feGaussianBlur stdDeviation="2"/>
			<feComposite in2="hardAlpha" operator="out" k2="-1" k3="1"/>
			<feColorMatrix type="matrix" values="0 0 0 0 0 0 0 0 0 0 0 0 0 0 0 0 0 0 0.5 0"/>
			<feBlend mode="normal" in2="BackgroundImageFix" result="effect_dropShadow_1"/>
			<feBlend mode="normal" in="SourceGraphic" in2="effect_dropShadow_1" result="shape"/>
		</filter>
		<filter id="filter_1_239_dd" x="23.226562" y="14.669922" width="25.546875" height="42.660156" filterUnits="userSpaceOnUse" color-interpolation-filters="sRGB">
			<feFlood flood-opacity="0" result="BackgroundImageFix"/>
			<feColorMatrix in="SourceAlpha" type="matrix" values="0 0 0 0 0 0 0 0 0 0 0 0 0 0 0 0 0 0 127 0" result="hardAlpha"/>
			<feOffset dx="0" dy="3"/>
			<feGaussianBlur stdDeviation="2"/>
			<feComposite in2="hardAlpha" operator="out" k2="-1" k3="1"/>
			<feColorMatrix type="matrix" values="0 0 0 0 0 0 0 0 0 0 0 0 0 0 0 0 0 0 0.6 0"/>
			<feBlend mode="normal" in2="BackgroundImageFix" result="effect_dropShadow_1"/>
			<feBlend mode="normal" in="SourceGraphic" in2="effect_dropShadow_1" result="shape"/>
		</filter>
		<linearGradient id="paint_linear_1_32_0" x1="36.000000" y1="3.000000" x2="36.000000" y2="63.000000" gradientUnits="userSpaceOnUse">
			<stop stop-color="#D1B86D"/>
			<stop offset="0.259451" stop-color="#BDA763"/>
			<stop offset="0.874458" stop-color="#72643C"/>
			<stop offset="1.000000" stop-color="#695C37"/>
		</linearGradient>
	</defs>
	<g filter="url(#filter_1_32_dd)">
		<path id="패스 473" d="M36 3C52.5684 3 66 16.4314 66 33C66 49.5686 52.5684 63 36 63C19.4316 63 6 49.5686 6 33C6 16.4314 19.4316 3 36 3Z" fill-rule="nonzero" fill="url(#paint_linear_1_32_0)"/>
	</g>
	<g filter="url(#filter_1_239_dd)">
		<path id="패스 10157" d="M42.3677 45.0212L41.9395 46.7725C40.6543 47.2798 39.6274 47.666 38.8633 47.9314C38.0977 48.1975 37.2085 48.3301 36.1953 48.3301C34.6396 48.3301 33.4297 47.949 32.5664 47.1919C31.7031 46.4319 31.2715 45.4688 31.2715 44.3003C31.2715 43.8479 31.3027 43.3828 31.3682 42.9087C31.4336 42.4341 31.5381 41.8997 31.6812 41.3022L33.2871 35.6174C33.4302 35.0732 33.5513 34.5574 33.6489 34.0696C33.7476 33.585 33.7949 33.1389 33.7949 32.7375C33.7949 32.0115 33.6445 31.5037 33.3452 31.218C33.0459 30.9333 32.4751 30.7888 31.6274 30.7888C31.2124 30.7888 30.7856 30.8555 30.3506 30.9839C29.9136 31.113 29.54 31.2378 29.2266 31.3538L29.6562 29.6013C30.708 29.1729 31.7139 28.8059 32.6758 28.5015C33.6382 28.1963 34.5469 28.0435 35.4067 28.0435C36.9521 28.0435 38.1445 28.417 38.9814 29.1638C39.8188 29.9111 40.2373 30.8801 40.2373 32.0742C40.2373 32.321 40.21 32.7563 40.1509 33.3784C40.0933 34.002 39.9858 34.5732 39.8291 35.093L38.23 40.7549C38.0986 41.2097 37.981 41.7297 37.8784 42.3147C37.7725 42.8958 37.7222 43.3398 37.7222 43.6377C37.7222 44.3896 37.8896 44.9028 38.2256 45.1758C38.564 45.4487 39.1475 45.5845 39.9756 45.5845C40.3643 45.5845 40.8066 45.5154 41.2983 45.3799C41.7886 45.2444 42.146 45.1255 42.3677 45.0212ZM42.7734 21.2505C42.7734 22.2368 42.4014 23.0793 41.6543 23.7722C40.9092 24.4673 40.0112 24.8152 38.9609 24.8152C37.9067 24.8152 37.0068 24.4673 36.2529 23.7722C35.5005 23.0791 35.1235 22.2368 35.1235 21.2505C35.1235 20.2659 35.5005 19.4219 36.2529 18.7205C37.0054 18.02 37.9072 17.6699 38.9609 17.6699C40.0107 17.6699 40.9092 18.0208 41.6543 18.7205C42.4023 19.4219 42.7734 20.2661 42.7734 21.2505Z" fill-rule="nonzero" fill="#FFFFFF"/>
	</g>
</svg>
