<svg width="259.856323" height="33.435425" viewBox="0 0 259.856 33.4354" fill="none" xmlns="http://www.w3.org/2000/svg" xmlns:xlink="http://www.w3.org/1999/xlink">
	<desc>
			Created with Pixso.
	</desc>
	<defs/>
	<path id=""출석체크 혜택안내"" d="M1.00311 8.49304Q0.46698 7.95691 0.502136 7.25378Q0.537292 6.55066 0.537292 5.82996L0.572449 3.05261Q0.607605 1.32996 1.34589 0.758667Q2.08417 0.178589 3.70135 0.899292Q4.35175 1.18054 4.49237 1.88367Q4.64178 2.58679 4.64178 3.34265L4.64178 6.12Q4.64178 6.79675 4.58026 7.51746Q4.52753 8.23816 3.85077 8.66882Q3.20038 9.06433 2.34784 9.02917Q1.50409 8.99402 1.00311 8.49304ZM7.48065 8.49304Q6.94452 7.95691 6.97968 7.25378Q7.01483 6.55066 7.01483 5.82996L7.04999 3.05261Q7.08514 1.32996 7.82343 0.758667Q8.56171 0.178589 10.1789 0.899292Q10.8293 1.18054 10.9699 1.88367Q11.1193 2.58679 11.1193 3.34265L11.1193 6.12Q11.1193 6.79675 11.0666 7.51746Q11.0139 8.23816 10.3283 8.66882Q9.67792 9.06433 8.83417 9.02917Q7.99042 8.99402 7.48065 8.49304ZM38.0908 29.5868Q38.6708 29.6571 39.1015 29.8768Q39.5322 30.0966 39.7079 30.6678Q40.1386 31.9686 38.7763 32.5048Q38.3456 32.6805 37.9062 32.7157Q37.4755 32.7596 37.08 32.7596L20.3456 32.7596Q19.6249 32.7596 18.8515 32.7421Q18.0781 32.7245 17.287 32.6805Q16.5312 32.6454 16.0214 32.1444Q15.5204 31.6434 15.4501 30.8085L15.3359 28.2948Q15.3007 27.8993 15.3359 27.3632Q15.371 26.8182 15.6962 26.4579Q16.206 25.913 17.0497 25.7723Q17.8935 25.6317 18.6845 25.6317Q19.1943 25.6317 20.3632 25.6317Q21.5322 25.6317 23.5449 25.6493Q25.5663 25.6669 28.5283 25.6669Q31.499 25.6669 35.6035 25.6669L35.6035 24.3661L17.8935 24.3661Q17.5331 24.3661 17.2431 24.3661Q16.9619 24.3661 16.6718 24.2958Q16.3466 24.2255 16.0917 24.1552Q15.8456 24.0848 15.6611 23.7948Q15.1601 23.0389 15.415 22.2479Q15.5204 21.9579 15.7314 21.7997Q15.9511 21.6327 16.2411 21.5272Q16.5312 21.413 16.7949 21.3778Q17.0673 21.3427 17.287 21.3075Q17.8232 21.202 18.3945 21.202Q18.9042 21.202 19.4931 21.202Q20.0908 21.202 20.9169 21.2196Q21.7431 21.2372 22.8417 21.2372Q23.9404 21.2372 25.4169 21.2372Q25.4521 20.8417 25.4697 20.4637Q25.4872 20.0858 25.4872 19.6903Q25.2763 19.6903 24.5204 19.6727Q23.7646 19.6552 22.7714 19.6552Q21.787 19.6552 20.6445 19.6376Q19.5107 19.62 18.5175 19.6024Q17.5331 19.5848 16.8124 19.5497Q16.0917 19.5057 15.8808 19.4706Q15.3007 19.4003 14.9579 19.4003Q14.6152 19.4003 14.1494 18.9696Q13.6835 18.5389 13.6835 17.8534Q13.6835 17.0975 14.1494 16.6317Q14.4042 16.3417 14.8349 16.2186Q15.2656 16.0868 15.6611 16.0341Q16.0566 15.9813 16.3642 15.9989Q16.6718 16.0165 16.707 16.0165L37.2997 16.0165Q37.8359 16.0165 38.372 16.0165Q38.9169 16.0165 39.4267 16.0516Q39.9277 16.0868 40.4111 16.1395Q40.8945 16.1923 41.2988 16.5526Q41.6943 16.8427 41.747 17.203Q41.7997 17.5634 41.7997 17.994Q41.7997 18.5389 41.4921 18.8641Q41.1845 19.1805 40.6484 19.3651Q39.9277 19.6552 39.04 19.62Q38.1611 19.5848 37.4404 19.62Q35.6386 19.6903 33.9687 19.6903Q32.2988 19.6903 30.4619 19.6903Q30.4619 20.0858 30.4619 20.4637Q30.4619 20.8417 30.4267 21.2372L35.9638 21.2372Q37.8007 21.2372 38.7675 21.7997Q39.7431 22.3534 39.7431 23.6102L39.7431 26.1678Q39.7431 26.6688 39.5058 27.161Q39.2773 27.6444 38.706 27.9696Q38.2314 28.2596 37.7656 28.2772Q37.2997 28.2948 36.8339 28.2948L19.7656 28.2948L19.7656 29.5868L38.0908 29.5868ZM36.2187 10.9364Q36.9042 11.2616 37.5283 11.6571Q38.1611 12.0526 38.7411 12.4569Q39.0224 12.703 39.0751 13.0985Q39.1367 13.494 38.9697 13.8719Q38.8115 14.2499 38.4863 14.5399Q38.1611 14.83 37.7304 14.9354Q36.579 15.12 35.5859 14.9266Q34.6015 14.7245 33.5556 14.2499Q32.58 13.8192 31.7011 13.4237Q30.8222 13.0282 29.9872 12.5624Q29.7411 12.413 29.3281 12.202Q28.915 11.9823 28.5107 11.8065Q28.0449 11.5868 27.5087 11.3407Q26.8935 11.6219 26.3222 11.8768Q25.8124 12.0966 25.329 12.3339Q24.8456 12.5624 24.5556 12.703Q23.6152 13.2128 22.8242 13.5555Q22.0331 13.8895 21.1015 14.3202Q20.3808 14.6102 19.6425 14.953Q18.9042 15.2958 18.0781 15.2958Q17.4277 15.2606 16.8124 14.953Q16.206 14.6454 16.0566 13.9686Q16.0214 13.6083 16.1269 13.1337Q16.2763 12.6327 16.6191 12.3075Q16.9619 11.9823 17.4628 11.6571L19.9501 10.4354Q20.5566 10.1454 21.0224 9.93445Q21.497 9.71472 22.1386 9.42468Q22.4286 9.2489 22.789 9.05554Q23.1494 8.85339 23.5449 8.66882L21.2773 8.66882Q20.706 8.66882 20.2841 8.66882Q19.871 8.66882 19.3349 8.59851Q18.9394 8.5282 18.4648 8.5282Q17.999 8.5282 17.6035 8.35242Q17.3925 8.27332 17.2255 8.07996Q17.0673 7.87781 16.9619 7.66687Q16.7421 7.30652 16.707 6.87585Q16.6718 6.4364 16.8476 6.04089Q17.1376 5.50476 17.788 5.21472Q18.4384 4.92468 19.1152 4.92468L19.9501 4.92468Q20.5214 5.00378 20.7939 4.96863Q21.0663 4.92468 21.6376 4.92468L24.8456 4.92468L24.8456 3.49207Q24.8456 2.41101 25.7773 2.0155Q26.7177 1.62 27.7988 1.72546Q28.7656 1.83093 29.2841 2.13855Q29.8115 2.44617 29.8466 3.16687Q29.8818 3.45691 29.8994 3.94031Q29.9169 4.42371 29.9169 4.92468L34.0917 4.92468Q34.6718 4.92468 35.4277 4.88953Q36.1835 4.85437 36.8867 4.98621Q37.5898 5.10925 38.1435 5.45203Q38.706 5.7948 38.8818 6.55066Q39.1015 7.41199 38.5742 7.86023Q38.0556 8.30847 37.247 8.51062Q36.4384 8.71277 35.5331 8.73035Q34.6367 8.74792 34.0566 8.74792Q33.4853 8.71277 32.8525 8.71277Q32.2197 8.71277 31.6484 8.71277Q31.8945 8.85339 32.1142 8.88855Q32.4745 9.06433 32.8173 9.23132Q33.1601 9.38953 33.5204 9.5741Q34.206 9.89929 34.8652 10.2421Q35.5331 10.5848 36.2187 10.9364ZM63.4388 22.8544Q64.5198 22.8192 65.1526 23.0389Q65.7854 23.2499 66.1458 23.6102Q66.5061 23.9706 66.6116 24.41Q66.7171 24.8407 66.7171 25.2714L66.7171 29.4462Q66.7874 30.2372 66.7171 31.0282Q66.6468 31.7841 66.1194 32.2499Q65.6009 32.7245 64.7747 32.7245Q64.5989 32.7245 64.1243 32.6981Q63.6585 32.6805 63.4827 32.6102Q63.0081 32.4696 62.7356 32.1796Q62.472 31.8895 62.3225 31.5292Q62.1819 31.1688 62.1468 30.7557Q62.1116 30.3427 62.0764 29.9471Q62.0764 29.8065 62.0589 29.3934Q62.0413 28.9803 62.0237 28.5321Q62.0061 28.0751 61.9886 27.6796Q61.971 27.2841 61.927 27.1434Q61.8216 27.1083 61.3382 27.0731Q60.8548 27.0292 59.5188 27.0292Q58.3675 27.0292 58.095 27.0468Q57.8225 27.0643 57.7874 27.1083L44.7971 27.1083L44.762 27.0643Q44.762 27.0643 44.5247 26.994Q44.2874 26.9237 43.9973 26.7831Q43.7161 26.6337 43.4436 26.3876Q43.1712 26.1327 43.136 25.7372Q42.9602 24.3661 43.6106 23.5751Q44.0413 23.0741 44.5423 22.9862Q45.0432 22.8895 45.0872 22.8895L63.4388 22.8544ZM42.7757 19.1102Q42.2747 18.8993 42.055 18.2841Q41.7737 17.5634 41.9671 16.8427Q42.1692 16.1219 42.5999 15.4803Q43.0305 14.83 43.5843 14.2587Q44.1468 13.6786 44.5423 13.1688Q45.1575 12.413 45.7639 11.6571Q46.3792 10.9012 46.9944 10.1102Q47.2054 9.82898 47.4954 9.50378Q47.7854 9.17859 48.0491 8.81824Q48.3216 8.45789 48.4973 8.09753Q48.6819 7.73718 48.7171 7.34167Q48.7522 6.72644 48.7874 6.13757Q48.8225 5.53992 48.9983 5.05652Q49.1829 4.56433 49.596 4.28308Q50.0179 3.99304 50.8089 3.99304Q51.3802 3.99304 51.9163 4.12488Q52.4612 4.24792 52.7161 4.81921Q52.971 5.4696 52.8743 6.24304Q52.7864 7.01648 53.0061 7.70203Q53.1819 8.30847 53.6126 8.7655Q54.0432 9.21375 54.3333 9.71472Q54.9485 10.8309 55.7747 11.701Q56.6009 12.5624 57.3216 13.5643Q57.9016 14.3202 58.4202 15.1376Q58.9388 15.9462 59.1233 16.8778Q59.2991 17.6688 58.9563 18.2313Q58.6223 18.785 58.0423 19.0399Q57.471 19.2948 56.7854 19.2069Q56.0999 19.1102 55.5989 18.6093Q54.263 17.2382 53.1643 15.7792Q52.0657 14.3202 50.9143 12.8085Q50.9143 12.8085 50.5891 13.1512Q50.2639 13.494 49.763 14.0214Q49.262 14.5399 48.6819 15.1727Q48.1106 15.7968 47.6009 16.3768Q47.0999 16.9569 46.7044 17.37Q46.3089 17.7831 46.2386 17.8885Q45.843 18.3544 45.4036 18.7147Q44.9729 19.0751 44.3665 19.2245Q43.971 19.2948 43.5491 19.2948Q43.136 19.2948 42.7757 19.1102ZM61.0657 13.0985Q60.0198 13.0282 59.1936 12.9755Q58.3675 12.9227 57.9016 12.202Q57.6819 11.8417 57.6819 11.2704Q57.6819 10.6903 57.7522 10.2948Q57.8665 9.89929 58.1477 9.62683Q58.4378 9.35437 59.1585 9.17859Q59.2991 9.14343 59.8528 9.12585Q60.4153 9.10828 61.0657 9.0907Q61.7161 9.06433 62.2874 9.04675Q62.8675 9.02917 63.0081 9.02917L63.0081 6.69128Q62.9729 6.29578 62.9905 5.90027Q63.0081 5.50476 63.1223 5.10925Q63.1927 4.81921 63.263 4.57312Q63.3333 4.31824 63.5882 4.0282Q63.8782 3.66785 64.3968 3.52722Q64.9153 3.37781 65.5305 3.45691Q66.0667 3.52722 66.4973 3.76453Q66.9368 3.99304 67.1126 4.35339Q67.3323 4.78406 67.385 5.41687Q67.4378 6.04089 67.4378 6.19031L67.4378 17.8534L67.4026 17.8534Q67.4026 17.8885 67.3675 18.1083Q67.3323 18.3192 67.218 18.6268Q67.1126 18.9344 66.8929 19.2596Q66.6819 19.5848 66.3216 19.7958Q65.8206 20.0858 65.2054 20.0858Q64.5989 20.0858 64.0188 19.6903Q63.5882 19.4003 63.4036 18.9696Q63.1927 18.5741 63.1136 18.1786Q63.0432 17.7831 63.0081 17.3876L63.0081 13.0985L61.0657 13.0985ZM82.8909 19.4003Q82.5657 19.4003 82.2229 19.3124Q81.8802 19.2245 81.5725 19.0048Q81.2737 18.785 81.054 18.4247Q80.843 18.0643 80.7991 17.5282Q80.7288 16.8778 80.887 16.1395Q81.054 15.4012 81.8802 15.0057Q82.2054 14.83 82.6888 14.7948Q83.1809 14.7596 83.5413 14.7948L85.2639 14.7948L85.2639 7.27136Q85.2639 6.79675 85.2639 6.31335Q85.2639 5.82996 85.3782 5.36414Q85.4485 5.17957 85.5013 5.03894Q85.554 4.88953 85.6243 4.71375Q85.844 4.35339 86.055 4.16003Q86.2747 3.95789 86.6702 3.80847Q86.8548 3.73816 87.0481 3.72058Q87.2503 3.703 87.4261 3.703Q88.6126 3.703 89.2278 4.78406Q89.3684 5.00378 89.4212 5.39929Q89.4827 5.7948 89.5179 6.20789Q89.553 6.62097 89.553 6.92859Q89.553 7.23621 89.553 7.30652L89.553 24.3309L89.553 28.2596Q89.553 29.1561 89.4915 29.701Q89.4388 30.2372 89.1575 31.0634Q88.9729 31.6083 88.5423 31.9598Q88.1116 32.3202 87.3206 32.3202Q87.1009 32.3202 86.7757 32.2675Q86.4505 32.2147 86.2747 32.0741Q85.9143 31.8544 85.7122 31.371Q85.5188 30.8876 85.4046 30.3514Q85.2991 29.8065 85.2815 29.3055Q85.2639 28.7958 85.2639 28.5057L85.2639 19.5057L82.8909 19.4003ZM95.7757 8.13269Q95.8548 10.8661 95.8108 13.6083Q95.7757 16.3417 95.7757 18.8993L95.7757 27.8993Q95.7757 28.8309 95.7229 29.701Q95.6702 30.5624 95.3098 31.3182Q95.0989 31.7841 94.6243 32.1093Q94.2288 32.3641 93.9212 32.4169Q93.6223 32.4696 93.1477 32.3641Q92.6116 32.2499 92.2864 31.9071Q91.9612 31.5643 91.7942 31.1337Q91.636 30.703 91.6009 30.202Q91.5657 29.6923 91.5657 29.2264L91.5657 7.59656Q91.5657 7.19226 91.5657 6.67371Q91.5657 6.15515 91.636 5.67175Q91.7151 5.17957 91.8382 4.7489Q91.9612 4.31824 92.2161 4.06335Q92.6116 3.703 92.972 3.61511Q93.3323 3.52722 93.8333 3.52722Q94.4485 3.52722 94.7913 3.87Q95.1341 4.21277 95.345 4.78406Q95.6702 5.53992 95.6878 6.44519Q95.7054 7.34167 95.7757 8.13269ZM80.4036 7.01648Q81.6341 7.01648 82.4602 7.20105Q83.2864 7.37683 83.7874 8.35242Q84.0423 8.81824 84.0774 9.34558Q84.1126 9.86414 83.9368 10.2596Q83.5413 11.1913 82.4954 11.3759Q81.7747 11.4462 81.0364 11.4813Q80.2981 11.5165 78.8567 11.4462Q78.8216 12.5975 78.8391 13.1249Q78.8567 13.6434 78.8567 13.8192L78.8567 17.9589Q78.8567 18.2489 78.8919 18.6971Q78.927 19.1454 78.927 19.3651Q79.1819 19.6552 79.3753 20.1737Q79.5774 20.6923 79.8675 21.0175Q80.1575 21.413 80.4563 21.87Q80.7639 22.3182 81.1243 22.8192Q81.3089 23.1093 81.5022 23.4169Q81.7044 23.7245 81.845 23.9706Q82.3548 24.8759 82.9436 25.9393Q83.5413 26.994 83.7522 28.0399Q83.8225 28.5057 83.7522 29.0682Q83.6819 29.6219 83.3216 29.9823Q82.9261 30.4921 82.2054 30.4921Q81.555 30.4921 80.9397 30.0614Q80.3333 29.6219 79.9378 29.1913Q79.4016 28.5057 78.927 27.785Q78.4612 27.0643 77.9602 26.3524Q77.6702 25.8427 77.2571 25.2362Q76.844 24.621 76.4134 24.1903Q76.053 24.7264 75.6751 25.2889Q75.2971 25.8427 74.972 26.4579Q74.5764 27.1786 74.1458 27.8466Q73.7151 28.5057 73.2054 29.121Q71.9837 30.5624 70.8675 30.5624Q70.5423 30.5624 70.3225 30.4569Q69.6809 30.3075 69.3909 29.5165Q69.2151 28.9803 69.2679 28.2948Q69.3206 27.6093 69.5315 27.1083Q69.7864 26.5634 70.0764 26.0624Q70.3665 25.5526 70.6477 25.0516Q70.8323 24.7616 71.0257 24.4628Q71.2278 24.1552 71.4036 23.8651Q71.6585 23.3641 72.0891 22.6786Q72.5198 21.993 72.9329 21.3427Q73.3548 20.6923 73.7063 20.1561Q74.0667 19.62 74.2513 19.4003L74.2513 11.4462L72.8802 11.4462Q71.7991 11.4462 71.2014 11.4462Q70.6126 11.4462 70.4016 11.3759Q69.8919 11.2616 69.5139 10.8837Q69.136 10.5057 68.9602 9.89929Q68.635 8.88855 69.136 8.06238Q69.4261 7.66687 69.7864 7.39441Q70.1468 7.12195 70.5423 7.05164Q70.6829 7.01648 70.885 7.01648Q71.0872 7.01648 71.263 7.01648L74.3919 7.01648Q74.3919 6.69128 74.427 6.20789Q74.471 5.72449 74.5237 5.24109Q74.5764 4.7489 74.6468 4.30066Q74.7171 3.85242 74.8665 3.56238Q75.0423 3.23718 75.3675 2.99109Q75.6927 2.73621 76.0706 2.61316Q76.4485 2.48132 76.8264 2.4989Q77.2044 2.51648 77.5296 2.69226Q78.2503 3.13171 78.5139 4.16003Q78.7864 5.17957 78.7864 7.01648L80.4036 7.01648ZM100.793 13.3534Q101.119 13.3885 101.532 13.3007Q101.945 13.2128 102.305 13.2128Q102.63 13.1688 103.456 13.1512Q104.283 13.1337 105.346 13.1161Q106.41 13.0985 107.596 13.0985Q108.783 13.0985 109.864 13.0809Q110.945 13.0634 111.806 13.0634Q112.667 13.0634 113.063 13.0634Q113.784 13.0634 114.557 13.0634Q115.33 13.0634 116.165 13.0985Q116.165 12.3778 116.165 11.411Q116.165 10.4354 116.095 9.71472Q115.691 9.71472 114.829 9.71472Q113.968 9.71472 112.87 9.71472Q111.771 9.71472 110.567 9.71472Q109.363 9.71472 108.282 9.7323Q107.201 9.74988 106.313 9.74988Q105.434 9.74988 105.038 9.74988Q103.887 9.74988 102.604 9.71472Q101.329 9.67957 99.9672 9.50378Q99.2816 9.42468 98.974 8.69519Q98.6664 7.95691 98.7016 7.01648Q98.7016 6.19031 99.2904 5.75964Q99.8881 5.32898 100.538 5.14441Q101.329 4.92468 102.068 4.9071Q102.806 4.88953 103.632 4.85437Q104.142 4.85437 104.643 4.87195Q105.144 4.88953 105.654 4.88953L113.968 4.88953Q114.179 4.88953 114.416 4.87195Q114.654 4.85437 114.865 4.88953L115.911 4.88953Q116.271 4.88953 116.596 4.9071Q116.921 4.92468 117.282 4.92468Q117.607 4.92468 117.923 4.92468Q118.248 4.92468 118.609 4.96863Q118.758 4.96863 118.916 4.96863Q119.075 4.96863 119.259 5.03894Q119.329 5.0741 119.435 5.10925Q119.549 5.14441 119.62 5.17957Q120.375 5.53992 120.771 6.19031Q121.096 6.72644 121.202 7.37683Q121.307 8.02722 121.307 8.63367Q121.307 10.3651 121.342 12.3866Q121.386 14.3993 121.307 16.1219Q121.272 16.6317 121.254 17.4755Q121.237 18.3192 121.149 19.2421Q121.061 20.1561 120.912 20.9647Q120.771 21.7733 120.516 22.2479Q120.235 22.7841 119.707 23.1093Q119.189 23.4344 118.609 23.5048Q118.037 23.5751 117.493 23.3817Q116.956 23.1796 116.631 22.6434Q116.306 22.0985 116.174 21.4569Q116.051 20.8065 116.051 20.1385Q116.051 19.4706 116.104 18.7938Q116.165 18.1083 116.165 17.4579L101.004 17.4579Q101.004 17.4579 100.837 17.37Q100.679 17.2733 100.459 17.1327Q100.248 16.9921 100.011 16.7723Q99.7826 16.5526 99.642 16.3065Q99.3871 15.7968 99.3871 15.1552Q99.3871 14.4344 99.6771 14.0389Q99.9232 13.6434 100.213 13.538Q100.503 13.4237 100.793 13.3534ZM100.213 30.202Q99.642 30.1669 99.0795 30.0438Q98.5258 29.912 98.0863 29.6835Q97.6557 29.4462 97.3832 29.0155Q97.1195 28.5848 97.1195 27.8641Q97.1195 27.1434 97.5854 26.5985Q97.8754 26.3085 98.3061 26.1678Q98.7367 26.0272 99.1322 25.9569Q99.5277 25.8778 99.8354 25.8778Q100.143 25.8778 100.178 25.8778L119.874 25.913Q120.806 25.913 121.579 25.9393Q122.353 25.9569 122.968 26.4579Q123.724 27.1434 123.724 28.0048Q123.724 28.5409 123.399 28.9979Q123.074 29.4462 122.537 29.6219Q121.817 29.912 121.043 30.0262Q120.27 30.1317 119.514 30.1669Q116.886 30.2723 114.329 30.2372Q111.771 30.202 109.363 30.202Q106.77 30.202 104.3 30.2372Q101.83 30.2723 100.213 30.202ZM141.498 11.6219Q142.253 11.6923 142.877 11.9296Q143.51 12.1669 144.125 12.5975Q144.556 12.993 144.952 13.4237Q145.347 13.8544 145.707 14.4696L149.917 14.4696L149.917 6.94617Q149.917 6.48035 149.917 5.99695Q149.917 5.50476 150.032 5.03894Q150.102 4.85437 150.155 4.71375Q150.207 4.56433 150.278 4.38855Q150.498 4.0282 150.708 3.83484Q150.928 3.63269 151.324 3.49207Q151.499 3.41296 151.754 3.39539Q152.009 3.37781 152.185 3.37781Q152.8 3.37781 153.064 3.66785Q153.336 3.95789 153.626 4.45886Q153.776 4.67859 153.829 5.0741Q153.881 5.4696 153.916 5.88269Q153.952 6.29578 153.952 6.60339Q153.952 6.91101 153.952 6.98132L153.952 24.1903L153.952 28.2596Q153.952 29.1561 153.899 29.701Q153.846 30.2372 153.556 31.0634Q153.372 31.6083 153.117 31.9598Q152.871 32.3202 152.08 32.3202Q151.86 32.3202 151.482 32.2675Q151.104 32.2147 150.928 32.0741Q150.568 31.8544 150.366 31.371Q150.172 30.8876 150.058 30.3514Q149.953 29.8065 149.935 29.3055Q149.917 28.7958 149.917 28.5057L149.917 26.7831L146.208 26.7831Q146.068 27.2489 145.813 27.8202Q145.417 28.5409 144.969 29.0682Q144.521 29.5868 143.835 29.9823Q142.579 30.703 141.137 30.8524Q139.696 30.9579 138.219 30.3778Q136.848 29.9471 135.987 28.6903Q135.266 27.6796 134.835 26.5634Q134.405 25.4471 134.264 24.1552Q134.185 23.5048 134.115 22.8632Q134.044 22.2128 134.044 21.5975Q134.044 20.9823 134.062 20.4462Q134.08 19.9012 134.15 19.2948Q134.15 18.7147 134.255 18.1434Q134.37 17.5634 134.545 16.9569Q135.196 14.3993 136.954 12.9403Q138.72 11.4813 141.498 11.6219ZM160.183 7.70203Q160.253 10.4003 160.218 13.371Q160.183 16.3417 160.183 18.8993L160.183 27.8993Q160.183 28.8309 160.122 29.701Q160.069 30.5624 159.708 31.3182Q159.498 31.7841 159.032 32.1093Q158.627 32.3641 158.337 32.4169Q158.056 32.4696 157.59 32.3641Q157.045 32.2499 156.703 31.9071Q156.36 31.5643 156.175 31.1337Q155.999 30.703 155.929 30.202Q155.859 29.6923 155.859 29.2264L155.859 7.34167Q155.859 6.94617 155.859 6.42761Q155.859 5.90027 155.929 5.41687Q155.999 4.92468 156.123 4.49402Q156.254 4.06335 156.509 3.80847Q156.905 3.45691 157.186 3.36902Q157.476 3.27234 157.986 3.27234Q158.592 3.27234 159.058 3.61511Q159.533 3.95789 159.744 4.52917Q160.069 5.28503 160.104 6.08484Q160.148 6.87585 160.183 7.70203ZM145.206 6.48035Q145.743 6.48035 146.393 6.65613Q146.894 6.8407 147.219 7.55261Q147.509 8.49304 146.999 9.38953Q146.859 9.5741 146.657 9.74109Q146.463 9.89929 146.288 10.0399Q146.068 10.1102 145.778 10.1893Q145.488 10.2596 145.206 10.2596Q144.916 10.33 144.662 10.33Q144.415 10.33 144.02 10.2596L142.86 10.2596L136.057 10.1454Q135.336 10.1454 134.835 10.0048Q134.334 9.86414 134.044 9.64441Q133.754 9.35437 133.587 8.99402Q133.429 8.63367 133.359 8.13269Q133.359 7.51746 133.939 6.94617Q134.22 6.65613 134.528 6.56824Q134.835 6.48035 135.231 6.48035L137.824 6.48035Q138.219 6.48035 138.219 6.36609Q138.219 6.22546 138.272 6.13757Q138.325 6.04089 138.325 5.97058L138.325 5.57507Q138.325 5.21472 138.43 4.93347Q138.544 4.64343 138.615 4.42371Q138.764 4.24792 138.975 4.05457Q139.195 3.85242 139.476 3.66785Q139.731 3.56238 140.074 3.50964Q140.416 3.45691 140.759 3.50964Q141.102 3.56238 141.366 3.72937Q141.638 3.88757 141.788 4.16882Q141.998 4.45886 141.998 4.71375Q142.069 4.78406 142.086 4.93347Q142.104 5.0741 142.104 5.21472Q142.218 5.4696 142.104 5.7948Q142.104 5.93542 142.104 6.10242Q142.104 6.26062 142.183 6.48035L145.206 6.48035ZM141.243 26.8534Q141.823 26.7479 142.289 26.2733Q142.499 25.9921 142.702 25.6844Q142.904 25.3768 143.044 25.0165Q143.22 24.621 143.29 24.2255Q143.37 23.83 143.44 23.4696Q143.51 23.0389 143.528 22.661Q143.545 22.2831 143.545 21.9227L143.545 20.5165Q143.475 20.121 143.44 19.7606Q143.405 19.4003 143.334 19.0048Q143.264 18.6444 143.185 18.2841Q143.115 17.9237 142.939 17.6337Q142.79 17.3524 142.64 17.0624Q142.499 16.7723 142.289 16.5526Q142.069 16.412 141.831 16.3417Q141.603 16.2714 141.313 16.1923Q141.032 16.1219 140.742 16.1835Q140.452 16.2362 140.162 16.3065Q139.872 16.3768 139.617 16.4471Q139.371 16.5175 139.081 16.7372Q138.72 17.0272 138.439 17.6337Q137.929 19.1454 137.929 20.5165Q137.929 21.3427 137.947 22.0985Q137.964 22.8544 138.114 23.6805Q138.184 24.0409 138.325 24.4628Q138.474 24.8759 138.615 25.3065Q138.764 25.6669 138.975 26.0096Q139.195 26.3524 139.476 26.5634Q139.555 26.6337 139.625 26.6776Q139.696 26.7128 139.872 26.7831Q139.951 26.7831 140.074 26.7831Q140.197 26.7831 140.346 26.8534L141.243 26.8534ZM149.917 22.5292L149.917 18.785L146.859 18.785Q146.929 19.4706 146.964 20.1034Q146.999 20.7362 146.999 21.413Q146.999 21.703 146.999 21.9755Q146.999 22.2479 146.964 22.5292L149.917 22.5292ZM175.886 15.7616Q176.352 16.0516 176.545 16.579Q176.747 17.0975 176.712 17.6776Q176.677 18.2489 176.405 18.7587Q176.132 19.2596 175.631 19.4706Q174.84 19.8661 173.97 19.8661Q173.109 19.8661 172.283 19.8661L167.967 19.8661Q167.352 19.8661 166.684 19.8309Q166.016 19.7958 165.366 19.6727Q164.724 19.5409 164.144 19.2948Q163.573 19.0399 163.177 18.6444Q162.817 18.2489 162.632 17.6249Q162.456 16.9921 162.386 16.3593Q162.316 15.7264 162.333 15.2606Q162.351 14.7948 162.351 14.7596L162.351 6.72644Q162.351 6.69128 162.333 6.44519Q162.316 6.19031 162.351 5.86511Q162.386 5.53992 162.456 5.21472Q162.527 4.88953 162.632 4.71375Q162.957 4.24792 163.283 4.0282Q163.608 3.80847 164.144 3.73816Q164.293 3.73816 164.487 3.72058Q164.689 3.703 164.9 3.703Q165.119 3.703 165.41 3.66785L173.328 3.66785Q174.084 3.66785 174.656 3.80847Q174.981 3.88757 175.306 3.97546Q175.631 4.06335 175.886 4.35339Q176.317 4.78406 176.422 5.39929Q176.493 5.68054 176.51 5.90027Q176.528 6.12 176.457 6.36609Q176.387 7.08679 175.877 7.59656Q175.376 8.09753 174.55 8.09753Q174.48 8.09753 174.278 8.09753Q174.084 8.09753 173.381 8.07996Q172.678 8.06238 171.254 8.06238Q169.839 8.06238 167.282 8.06238L167.282 9.38953Q168.433 9.46863 169.206 9.43347Q169.98 9.38953 170.015 9.38953L171.711 9.38953Q171.887 9.38953 172.063 9.4071Q172.247 9.42468 172.467 9.38953L173.399 9.38953Q173.794 9.38953 174.207 9.46863Q174.62 9.53894 174.981 9.71472Q175.526 10.0048 175.684 10.5848Q175.851 11.1561 175.772 11.6571Q175.737 11.912 175.719 12.1844Q175.702 12.4569 175.526 12.6327Q175.13 13.1688 174.673 13.3007Q174.225 13.4237 173.724 13.4237L167.282 13.4237L167.282 14.4696Q167.282 14.6454 167.317 14.8475Q167.352 15.0409 167.493 15.1903Q167.677 15.3309 167.923 15.3661Q168.178 15.4012 168.363 15.4012L173.188 15.4012Q173.794 15.4012 174.366 15.4012Q174.946 15.4012 175.491 15.5858Q175.702 15.621 175.886 15.7616ZM182.583 17.9589Q182.539 18.3544 182.469 18.7675Q182.399 19.1805 182.188 19.5848Q181.933 20.0507 181.573 20.2616Q181.318 20.4462 181.133 20.5516Q180.957 20.6571 180.632 20.6571Q180.131 20.6571 179.63 20.3759Q179.27 20.1561 179.05 19.8309Q178.839 19.5057 178.725 19.2069Q178.619 18.8993 178.584 18.6884Q178.549 18.4686 178.549 18.4247L178.549 6.58582Q178.514 6.40125 178.567 5.77722Q178.619 5.14441 178.839 4.71375Q179.2 3.95789 180.316 3.85242Q180.922 3.77332 181.318 3.92273Q181.713 4.06335 182.003 4.38855Q182.258 4.67859 182.328 4.95105Q182.399 5.21472 182.469 5.50476Q182.583 5.86511 182.601 6.26062Q182.618 6.65613 182.618 7.05164Q182.618 7.05164 182.601 7.41199Q182.583 7.77234 182.583 8.26453Q182.583 8.74792 182.583 9.21375Q182.583 9.67957 182.583 9.93445Q182.759 9.9696 183.225 9.98718Q183.7 10.0048 184.201 10.0399L184.236 6.94617Q184.201 6.55066 184.218 6.17273Q184.236 5.7948 184.341 5.39929Q184.491 4.85437 184.992 4.31824Q185.572 3.59753 186.688 3.73816Q187.619 3.88757 187.98 4.67859Q188.2 5.10925 188.252 5.72449Q188.305 6.33093 188.27 6.48035L188.27 18.5389Q188.27 18.5741 188.252 18.7938Q188.235 19.0048 188.12 19.3124Q188.015 19.62 187.813 19.9452Q187.619 20.2616 187.259 20.4813Q186.864 20.7362 186.433 20.7362Q185.712 20.7362 185.246 20.3759Q184.851 20.0858 184.631 19.6552Q184.455 19.33 184.359 18.8817Q184.271 18.4247 184.236 17.9413Q184.201 17.4579 184.201 16.9921Q184.201 16.5175 184.201 16.1923L184.201 13.9686L182.583 13.9686L182.583 17.9589ZM184.376 23.1093Q185.853 23.1093 186.749 23.5575Q187.655 24.0057 187.655 24.8407L187.655 29.6571Q187.725 30.4921 187.655 31.2479Q187.584 32.0038 187.057 32.4696Q186.538 32.9354 185.712 32.9354Q185.528 32.9354 185.062 32.9178Q184.596 32.9003 184.411 32.83Q183.946 32.6805 183.673 32.3905Q183.41 32.1093 183.26 31.7489Q183.119 31.3885 183.067 30.9755Q183.014 30.5624 182.979 30.1669Q182.979 30.0175 182.961 29.6044Q182.944 29.1913 182.944 28.743Q182.944 28.2948 182.917 27.8993Q182.9 27.5038 182.865 27.3544Q182.759 27.3192 182.267 27.2841Q181.784 27.2489 180.456 27.2489Q179.305 27.2489 179.033 27.2841Q178.76 27.3192 178.725 27.3192L165.735 27.3192L165.7 27.2841Q165.7 27.2841 165.462 27.2137Q165.225 27.1434 164.935 27.0028Q164.654 26.8534 164.381 26.6073Q164.109 26.3524 164.074 25.9569Q163.898 24.5858 164.548 23.7948Q164.979 23.285 165.48 23.1971Q165.981 23.1093 166.016 23.1093L184.376 23.1093ZM202.893 4.78406Q205.055 5.93542 205.969 7.95691Q206.892 9.9696 206.672 12.7733Q206.452 16.3768 204.633 18.1434Q202.822 19.9012 199.078 19.9012Q198.102 19.9012 197.294 19.9188Q196.485 19.9364 195.765 19.8309Q195.044 19.7255 194.288 19.453Q193.532 19.1805 192.671 18.6093Q190.975 17.493 190.342 15.6913Q189.718 13.8895 189.718 11.9823Q189.718 10.0751 190.394 8.40515Q191.08 6.72644 192.636 5.53992Q193.893 4.52917 195.457 4.06335Q197.021 3.59753 198.603 3.73816Q199.324 3.80847 199.843 3.87Q200.37 3.92273 200.836 4.0282Q201.311 4.13367 201.776 4.31824Q202.242 4.49402 202.893 4.78406ZM196.38 32.7245Q194.903 32.7245 193.998 32.0917Q193.102 31.4589 193.102 30.6327L193.102 25.4471Q193.031 24.6561 193.102 23.83Q193.172 23.0741 193.69 22.6083Q194.218 22.1337 195.044 22.1337Q195.22 22.1337 195.686 22.1512Q196.16 22.1688 196.336 22.2479Q196.811 22.3885 197.074 22.6786Q197.347 22.9686 197.487 23.3466Q197.637 23.7245 197.672 24.1376Q197.707 24.5507 197.742 24.9462Q197.742 25.0868 197.76 25.6141Q197.777 26.1327 197.795 26.7303Q197.812 27.3192 197.83 27.829Q197.848 28.33 197.892 28.4354Q197.566 28.5057 198.445 28.5497Q199.324 28.5848 201.319 28.62Q203.323 28.6552 206.364 28.6552Q209.405 28.6552 213.369 28.62L213.404 28.62Q213.404 28.62 213.633 28.6903Q213.87 28.7606 214.16 28.9276Q214.45 29.0858 214.696 29.3583Q214.951 29.6219 215.021 29.9823Q215.171 31.2831 214.556 32.0038Q214.125 32.5048 213.615 32.6102Q213.114 32.7245 213.079 32.7245L196.38 32.7245ZM214.556 14.7596L214.556 19.8661Q214.556 20.4813 214.336 21.1844Q214.125 21.8876 213.439 22.2128Q212.868 22.6083 212.218 22.6083Q211.567 22.6083 211.066 22.3182Q210.671 22.0985 210.451 21.7821Q210.231 21.4569 210.108 21.1669Q209.985 20.8768 209.95 20.6483Q209.915 20.411 209.915 20.411L209.915 6.62097Q209.915 6.4364 209.968 5.7948Q210.02 5.14441 210.231 4.71375Q210.636 3.95789 211.787 3.85242Q212.394 3.77332 212.982 3.92273Q213.58 4.06335 213.905 4.38855Q214.301 4.88953 214.424 5.50476Q214.556 6.12 214.556 6.7616L214.556 10.7255Q214.696 10.7255 215.092 10.7606Q215.496 10.7958 215.927 10.8134Q216.357 10.8309 216.735 10.8661Q217.113 10.9012 217.254 10.9364Q217.975 11.0858 218.3 11.3583Q218.625 11.6219 218.73 12.0175Q218.801 12.413 218.801 12.9403Q218.801 13.4589 218.59 13.8192Q218.124 14.5399 217.509 14.6542Q216.894 14.7596 215.812 14.7596L214.556 14.7596ZM202.392 13.1688Q202.392 12.3778 202.312 11.6835Q202.242 10.9803 202.005 10.3827Q201.776 9.78503 201.302 9.31921Q200.836 8.85339 200.08 8.56335Q199.254 8.27332 198.278 8.27332Q197.311 8.27332 196.441 8.61609Q195.58 8.95886 194.93 9.66199Q194.288 10.3651 194.103 11.4813Q193.998 12.2372 194.121 13.0106Q194.253 13.7841 194.666 14.4169Q195.079 15.0409 195.817 15.4803Q196.556 15.911 197.672 16.0165Q198.428 16.0868 199.184 15.9989Q199.939 15.911 200.59 15.5858Q201.24 15.2606 201.706 14.6718Q202.172 14.0741 202.392 13.1688ZM225.548 30.8085Q224.748 30.8085 224.177 30.703Q223.852 30.6678 223.474 30.6327Q223.096 30.5975 222.7 30.5975Q222.41 30.5624 222.138 30.5272Q221.874 30.4921 221.584 30.413Q220.969 30.202 220.573 29.7714Q220.397 29.5868 220.23 29.4286Q220.072 29.2616 219.967 29.0858Q219.782 28.8661 219.677 28.33Q219.387 27.1434 219.457 25.8427Q219.492 25.1923 219.492 24.6034Q219.492 24.0057 219.492 23.3993L219.492 20.2968L219.492 17.3876L219.492 14.5399Q219.457 13.7137 219.457 12.993Q219.457 12.2723 219.457 11.5516L219.457 8.99402Q219.457 8.45789 219.457 8.07996Q219.457 7.70203 219.492 7.51746Q219.536 6.79675 219.817 5.97058Q220.143 5.10925 221.118 4.7489Q221.294 4.67859 221.505 4.64343Q221.725 4.60828 221.944 4.52917Q222.34 4.45886 222.806 4.56433Q223.315 4.67859 223.711 4.92468Q224.142 5.24988 224.247 5.72449Q224.353 6.00574 224.44 6.2782Q224.537 6.55066 224.537 6.8407Q224.607 7.12195 224.607 7.41199Q224.607 7.70203 224.607 7.99207L224.607 9.17859Q224.607 9.60925 224.59 9.89929Q224.572 10.1805 224.572 10.4003L224.572 12.3075L224.572 14.83L224.572 17.6688L224.572 20.411L224.572 22.8895Q224.572 23.5048 224.59 23.9969Q224.607 24.4803 224.607 24.8759Q224.607 24.9813 224.625 25.1132Q224.643 25.2362 224.643 25.3768Q224.713 25.5526 224.862 25.7723Q225.187 26.0272 225.398 26.0272L227.666 26.1327Q227.921 26.1678 228.114 26.1678Q228.316 26.1678 228.492 26.1678Q229.248 26.1678 230.039 26.1327Q230.839 26.0975 231.48 26.2645Q232.131 26.4227 232.544 26.9061Q232.957 27.3895 232.957 28.4003L232.957 28.7606Q232.922 29.2968 232.614 29.6571Q232.315 30.0175 231.876 30.2196Q231.445 30.413 230.927 30.4921Q230.408 30.5624 229.934 30.5975Q229.213 30.6327 228.545 30.7206Q227.886 30.8085 227.27 30.8085L226.154 30.8085L225.548 30.8085ZM245.42 28.7255Q245.42 29.1913 245.376 29.7186Q245.341 30.2372 245.27 30.7382Q245.165 31.7137 244.374 32.3641Q244.014 32.5399 243.706 32.6278Q243.398 32.7245 243.108 32.7245Q242.502 32.7245 242.106 32.2499Q241.887 32.0038 241.737 31.7665Q241.597 31.5292 241.526 31.2128Q241.421 30.8876 241.342 30.5624Q241.271 30.2372 241.236 29.8417Q241.236 29.4813 241.219 29.2089Q241.201 28.9364 241.201 28.6903L241.201 19.5848L238.468 19.5848L238.468 28.9012Q238.573 29.7714 238.433 30.6678Q238.327 31.4589 237.967 32.0741Q237.536 32.7245 236.631 32.7245Q236.455 32.7245 236.235 32.6454Q236.016 32.5751 235.805 32.5048Q235.444 32.3202 235.154 32.0389Q234.864 31.7489 234.645 31.3885Q234.434 31.0282 234.363 30.5272Q234.293 30.0526 234.275 29.6219Q234.258 29.1913 234.258 28.7958L234.258 6.12Q234.258 5.03894 234.583 4.28308Q234.979 3.45691 236.165 3.34265Q237.097 3.27234 237.536 3.77332Q237.747 4.06335 237.923 4.33582Q238.107 4.60828 238.213 4.96863Q238.433 5.7948 238.433 6.55066Q238.468 6.94617 238.468 7.27136Q238.468 7.59656 238.468 7.84265L238.468 15.0848L241.201 15.0848L241.201 7.55261L241.201 6.36609Q241.201 5.68054 241.315 4.96863Q241.456 4.38855 241.816 3.88757Q242.212 3.45691 243.038 3.34265Q243.223 3.34265 243.416 3.34265Q243.618 3.34265 243.794 3.41296Q244.225 3.59753 244.444 3.85242Q244.664 4.09851 244.822 4.35339Q244.98 4.60828 245.06 4.92468Q245.235 5.61023 245.306 6.4364Q245.42 7.27136 245.42 7.95691L245.42 9.35437L245.42 28.7255ZM249.24 8.49304Q248.704 7.95691 248.739 7.25378Q248.774 6.55066 248.774 5.82996L248.809 3.05261Q248.845 1.32996 249.583 0.758667Q250.321 0.178589 251.938 0.899292Q252.589 1.18054 252.729 1.88367Q252.879 2.58679 252.879 3.34265L252.879 6.12Q252.879 6.79675 252.817 7.51746Q252.765 8.23816 252.088 8.66882Q251.437 9.06433 250.585 9.02917Q249.741 8.99402 249.24 8.49304ZM255.718 8.49304Q255.182 7.95691 255.217 7.25378Q255.252 6.55066 255.252 5.82996L255.287 3.05261Q255.322 1.32996 256.06 0.758667Q256.799 0.178589 258.416 0.899292Q259.066 1.18054 259.207 1.88367Q259.356 2.58679 259.356 3.34265L259.356 6.12Q259.356 6.79675 259.304 7.51746Q259.251 8.23816 258.565 8.66882Q257.915 9.06433 257.071 9.02917Q256.227 8.99402 255.718 8.49304Z" fill-rule="evenodd" fill="#FFFFFF"/>
	<path id=""출석체크 혜택안내"" d="M1.00311 8.49304Q0.46698 7.95691 0.502136 7.25378Q0.537292 6.55066 0.537292 5.82996L0.572449 3.05261Q0.607605 1.32996 1.34589 0.758667Q2.08417 0.178589 3.70135 0.899292Q4.35175 1.18054 4.49237 1.88367Q4.64178 2.58679 4.64178 3.34265L4.64178 6.12Q4.64178 6.79675 4.58026 7.51746Q4.52753 8.23816 3.85077 8.66882Q3.20038 9.06433 2.34784 9.02917Q1.50409 8.99402 1.00311 8.49304ZM7.48065 8.49304Q6.94452 7.95691 6.97968 7.25378Q7.01483 6.55066 7.01483 5.82996L7.04999 3.05261Q7.08514 1.32996 7.82343 0.758667Q8.56171 0.178589 10.1789 0.899292Q10.8293 1.18054 10.9699 1.88367Q11.1193 2.58679 11.1193 3.34265L11.1193 6.12Q11.1193 6.79675 11.0666 7.51746Q11.0139 8.23816 10.3283 8.66882Q9.67792 9.06433 8.83417 9.02917Q7.99042 8.99402 7.48065 8.49304ZM38.0908 29.5868Q38.6708 29.6571 39.1015 29.8768Q39.5322 30.0966 39.7079 30.6678Q40.1386 31.9686 38.7763 32.5048Q38.3456 32.6805 37.9062 32.7157Q37.4755 32.7596 37.08 32.7596L20.3456 32.7596Q19.6249 32.7596 18.8515 32.7421Q18.0781 32.7245 17.287 32.6805Q16.5312 32.6454 16.0214 32.1444Q15.5204 31.6434 15.4501 30.8085L15.3359 28.2948Q15.3007 27.8993 15.3359 27.3632Q15.371 26.8182 15.6962 26.4579Q16.206 25.913 17.0497 25.7723Q17.8935 25.6317 18.6845 25.6317Q19.1943 25.6317 20.3632 25.6317Q21.5322 25.6317 23.5449 25.6493Q25.5663 25.6669 28.5283 25.6669Q31.499 25.6669 35.6035 25.6669L35.6035 24.3661L17.8935 24.3661Q17.5331 24.3661 17.2431 24.3661Q16.9619 24.3661 16.6718 24.2958Q16.3466 24.2255 16.0917 24.1552Q15.8456 24.0848 15.6611 23.7948Q15.1601 23.0389 15.415 22.2479Q15.5204 21.9579 15.7314 21.7997Q15.9511 21.6327 16.2411 21.5272Q16.5312 21.413 16.7949 21.3778Q17.0673 21.3427 17.287 21.3075Q17.8232 21.202 18.3945 21.202Q18.9042 21.202 19.4931 21.202Q20.0908 21.202 20.9169 21.2196Q21.7431 21.2372 22.8417 21.2372Q23.9404 21.2372 25.4169 21.2372Q25.4521 20.8417 25.4697 20.4637Q25.4872 20.0858 25.4872 19.6903Q25.2763 19.6903 24.5204 19.6727Q23.7646 19.6552 22.7714 19.6552Q21.787 19.6552 20.6445 19.6376Q19.5107 19.62 18.5175 19.6024Q17.5331 19.5848 16.8124 19.5497Q16.0917 19.5057 15.8808 19.4706Q15.3007 19.4003 14.9579 19.4003Q14.6152 19.4003 14.1494 18.9696Q13.6835 18.5389 13.6835 17.8534Q13.6835 17.0975 14.1494 16.6317Q14.4042 16.3417 14.8349 16.2186Q15.2656 16.0868 15.6611 16.0341Q16.0566 15.9813 16.3642 15.9989Q16.6718 16.0165 16.707 16.0165L37.2997 16.0165Q37.8359 16.0165 38.372 16.0165Q38.9169 16.0165 39.4267 16.0516Q39.9277 16.0868 40.4111 16.1395Q40.8945 16.1923 41.2988 16.5526Q41.6943 16.8427 41.747 17.203Q41.7997 17.5634 41.7997 17.994Q41.7997 18.5389 41.4921 18.8641Q41.1845 19.1805 40.6484 19.3651Q39.9277 19.6552 39.04 19.62Q38.1611 19.5848 37.4404 19.62Q35.6386 19.6903 33.9687 19.6903Q32.2988 19.6903 30.4619 19.6903Q30.4619 20.0858 30.4619 20.4637Q30.4619 20.8417 30.4267 21.2372L35.9638 21.2372Q37.8007 21.2372 38.7675 21.7997Q39.7431 22.3534 39.7431 23.6102L39.7431 26.1678Q39.7431 26.6688 39.5058 27.161Q39.2773 27.6444 38.706 27.9696Q38.2314 28.2596 37.7656 28.2772Q37.2997 28.2948 36.8339 28.2948L19.7656 28.2948L19.7656 29.5868L38.0908 29.5868ZM36.2187 10.9364Q36.9042 11.2616 37.5283 11.6571Q38.1611 12.0526 38.7411 12.4569Q39.0224 12.703 39.0751 13.0985Q39.1367 13.494 38.9697 13.8719Q38.8115 14.2499 38.4863 14.5399Q38.1611 14.83 37.7304 14.9354Q36.579 15.12 35.5859 14.9266Q34.6015 14.7245 33.5556 14.2499Q32.58 13.8192 31.7011 13.4237Q30.8222 13.0282 29.9872 12.5624Q29.7411 12.413 29.3281 12.202Q28.915 11.9823 28.5107 11.8065Q28.0449 11.5868 27.5087 11.3407Q26.8935 11.6219 26.3222 11.8768Q25.8124 12.0966 25.329 12.3339Q24.8456 12.5624 24.5556 12.703Q23.6152 13.2128 22.8242 13.5555Q22.0331 13.8895 21.1015 14.3202Q20.3808 14.6102 19.6425 14.953Q18.9042 15.2958 18.0781 15.2958Q17.4277 15.2606 16.8124 14.953Q16.206 14.6454 16.0566 13.9686Q16.0214 13.6083 16.1269 13.1337Q16.2763 12.6327 16.6191 12.3075Q16.9619 11.9823 17.4628 11.6571L19.9501 10.4354Q20.5566 10.1454 21.0224 9.93445Q21.497 9.71472 22.1386 9.42468Q22.4286 9.2489 22.789 9.05554Q23.1494 8.85339 23.5449 8.66882L21.2773 8.66882Q20.706 8.66882 20.2841 8.66882Q19.871 8.66882 19.3349 8.59851Q18.9394 8.5282 18.4648 8.5282Q17.999 8.5282 17.6035 8.35242Q17.3925 8.27332 17.2255 8.07996Q17.0673 7.87781 16.9619 7.66687Q16.7421 7.30652 16.707 6.87585Q16.6718 6.4364 16.8476 6.04089Q17.1376 5.50476 17.788 5.21472Q18.4384 4.92468 19.1152 4.92468L19.9501 4.92468Q20.5214 5.00378 20.7939 4.96863Q21.0663 4.92468 21.6376 4.92468L24.8456 4.92468L24.8456 3.49207Q24.8456 2.41101 25.7773 2.0155Q26.7177 1.62 27.7988 1.72546Q28.7656 1.83093 29.2841 2.13855Q29.8115 2.44617 29.8466 3.16687Q29.8818 3.45691 29.8994 3.94031Q29.9169 4.42371 29.9169 4.92468L34.0917 4.92468Q34.6718 4.92468 35.4277 4.88953Q36.1835 4.85437 36.8867 4.98621Q37.5898 5.10925 38.1435 5.45203Q38.706 5.7948 38.8818 6.55066Q39.1015 7.41199 38.5742 7.86023Q38.0556 8.30847 37.247 8.51062Q36.4384 8.71277 35.5331 8.73035Q34.6367 8.74792 34.0566 8.74792Q33.4853 8.71277 32.8525 8.71277Q32.2197 8.71277 31.6484 8.71277Q31.8945 8.85339 32.1142 8.88855Q32.4745 9.06433 32.8173 9.23132Q33.1601 9.38953 33.5204 9.5741Q34.206 9.89929 34.8652 10.2421Q35.5331 10.5848 36.2187 10.9364ZM63.4388 22.8544Q64.5198 22.8192 65.1526 23.0389Q65.7854 23.2499 66.1458 23.6102Q66.5061 23.9706 66.6116 24.41Q66.7171 24.8407 66.7171 25.2714L66.7171 29.4462Q66.7874 30.2372 66.7171 31.0282Q66.6468 31.7841 66.1194 32.2499Q65.6009 32.7245 64.7747 32.7245Q64.5989 32.7245 64.1243 32.6981Q63.6585 32.6805 63.4827 32.6102Q63.0081 32.4696 62.7356 32.1796Q62.472 31.8895 62.3225 31.5292Q62.1819 31.1688 62.1468 30.7557Q62.1116 30.3427 62.0764 29.9471Q62.0764 29.8065 62.0589 29.3934Q62.0413 28.9803 62.0237 28.5321Q62.0061 28.0751 61.9886 27.6796Q61.971 27.2841 61.927 27.1434Q61.8216 27.1083 61.3382 27.0731Q60.8548 27.0292 59.5188 27.0292Q58.3675 27.0292 58.095 27.0468Q57.8225 27.0643 57.7874 27.1083L44.7971 27.1083L44.762 27.0643Q44.762 27.0643 44.5247 26.994Q44.2874 26.9237 43.9973 26.7831Q43.7161 26.6337 43.4436 26.3876Q43.1712 26.1327 43.136 25.7372Q42.9602 24.3661 43.6106 23.5751Q44.0413 23.0741 44.5423 22.9862Q45.0432 22.8895 45.0872 22.8895L63.4388 22.8544ZM42.7757 19.1102Q42.2747 18.8993 42.055 18.2841Q41.7737 17.5634 41.9671 16.8427Q42.1692 16.1219 42.5999 15.4803Q43.0305 14.83 43.5843 14.2587Q44.1468 13.6786 44.5423 13.1688Q45.1575 12.413 45.7639 11.6571Q46.3792 10.9012 46.9944 10.1102Q47.2054 9.82898 47.4954 9.50378Q47.7854 9.17859 48.0491 8.81824Q48.3216 8.45789 48.4973 8.09753Q48.6819 7.73718 48.7171 7.34167Q48.7522 6.72644 48.7874 6.13757Q48.8225 5.53992 48.9983 5.05652Q49.1829 4.56433 49.596 4.28308Q50.0179 3.99304 50.8089 3.99304Q51.3802 3.99304 51.9163 4.12488Q52.4612 4.24792 52.7161 4.81921Q52.971 5.4696 52.8743 6.24304Q52.7864 7.01648 53.0061 7.70203Q53.1819 8.30847 53.6126 8.7655Q54.0432 9.21375 54.3333 9.71472Q54.9485 10.8309 55.7747 11.701Q56.6009 12.5624 57.3216 13.5643Q57.9016 14.3202 58.4202 15.1376Q58.9388 15.9462 59.1233 16.8778Q59.2991 17.6688 58.9563 18.2313Q58.6223 18.785 58.0423 19.0399Q57.471 19.2948 56.7854 19.2069Q56.0999 19.1102 55.5989 18.6093Q54.263 17.2382 53.1643 15.7792Q52.0657 14.3202 50.9143 12.8085Q50.9143 12.8085 50.5891 13.1512Q50.2639 13.494 49.763 14.0214Q49.262 14.5399 48.6819 15.1727Q48.1106 15.7968 47.6009 16.3768Q47.0999 16.9569 46.7044 17.37Q46.3089 17.7831 46.2386 17.8885Q45.843 18.3544 45.4036 18.7147Q44.9729 19.0751 44.3665 19.2245Q43.971 19.2948 43.5491 19.2948Q43.136 19.2948 42.7757 19.1102ZM61.0657 13.0985Q60.0198 13.0282 59.1936 12.9755Q58.3675 12.9227 57.9016 12.202Q57.6819 11.8417 57.6819 11.2704Q57.6819 10.6903 57.7522 10.2948Q57.8665 9.89929 58.1477 9.62683Q58.4378 9.35437 59.1585 9.17859Q59.2991 9.14343 59.8528 9.12585Q60.4153 9.10828 61.0657 9.0907Q61.7161 9.06433 62.2874 9.04675Q62.8675 9.02917 63.0081 9.02917L63.0081 6.69128Q62.9729 6.29578 62.9905 5.90027Q63.0081 5.50476 63.1223 5.10925Q63.1927 4.81921 63.263 4.57312Q63.3333 4.31824 63.5882 4.0282Q63.8782 3.66785 64.3968 3.52722Q64.9153 3.37781 65.5305 3.45691Q66.0667 3.52722 66.4973 3.76453Q66.9368 3.99304 67.1126 4.35339Q67.3323 4.78406 67.385 5.41687Q67.4378 6.04089 67.4378 6.19031L67.4378 17.8534L67.4026 17.8534Q67.4026 17.8885 67.3675 18.1083Q67.3323 18.3192 67.218 18.6268Q67.1126 18.9344 66.8929 19.2596Q66.6819 19.5848 66.3216 19.7958Q65.8206 20.0858 65.2054 20.0858Q64.5989 20.0858 64.0188 19.6903Q63.5882 19.4003 63.4036 18.9696Q63.1927 18.5741 63.1136 18.1786Q63.0432 17.7831 63.0081 17.3876L63.0081 13.0985L61.0657 13.0985ZM82.8909 19.4003Q82.5657 19.4003 82.2229 19.3124Q81.8802 19.2245 81.5725 19.0048Q81.2737 18.785 81.054 18.4247Q80.843 18.0643 80.7991 17.5282Q80.7288 16.8778 80.887 16.1395Q81.054 15.4012 81.8802 15.0057Q82.2054 14.83 82.6888 14.7948Q83.1809 14.7596 83.5413 14.7948L85.2639 14.7948L85.2639 7.27136Q85.2639 6.79675 85.2639 6.31335Q85.2639 5.82996 85.3782 5.36414Q85.4485 5.17957 85.5013 5.03894Q85.554 4.88953 85.6243 4.71375Q85.844 4.35339 86.055 4.16003Q86.2747 3.95789 86.6702 3.80847Q86.8548 3.73816 87.0481 3.72058Q87.2503 3.703 87.4261 3.703Q88.6126 3.703 89.2278 4.78406Q89.3684 5.00378 89.4212 5.39929Q89.4827 5.7948 89.5179 6.20789Q89.553 6.62097 89.553 6.92859Q89.553 7.23621 89.553 7.30652L89.553 24.3309L89.553 28.2596Q89.553 29.1561 89.4915 29.701Q89.4388 30.2372 89.1575 31.0634Q88.9729 31.6083 88.5423 31.9598Q88.1116 32.3202 87.3206 32.3202Q87.1009 32.3202 86.7757 32.2675Q86.4505 32.2147 86.2747 32.0741Q85.9143 31.8544 85.7122 31.371Q85.5188 30.8876 85.4046 30.3514Q85.2991 29.8065 85.2815 29.3055Q85.2639 28.7958 85.2639 28.5057L85.2639 19.5057L82.8909 19.4003ZM95.7757 8.13269Q95.8548 10.8661 95.8108 13.6083Q95.7757 16.3417 95.7757 18.8993L95.7757 27.8993Q95.7757 28.8309 95.7229 29.701Q95.6702 30.5624 95.3098 31.3182Q95.0989 31.7841 94.6243 32.1093Q94.2288 32.3641 93.9212 32.4169Q93.6223 32.4696 93.1477 32.3641Q92.6116 32.2499 92.2864 31.9071Q91.9612 31.5643 91.7942 31.1337Q91.636 30.703 91.6009 30.202Q91.5657 29.6923 91.5657 29.2264L91.5657 7.59656Q91.5657 7.19226 91.5657 6.67371Q91.5657 6.15515 91.636 5.67175Q91.7151 5.17957 91.8382 4.7489Q91.9612 4.31824 92.2161 4.06335Q92.6116 3.703 92.972 3.61511Q93.3323 3.52722 93.8333 3.52722Q94.4485 3.52722 94.7913 3.87Q95.1341 4.21277 95.345 4.78406Q95.6702 5.53992 95.6878 6.44519Q95.7054 7.34167 95.7757 8.13269ZM80.4036 7.01648Q81.6341 7.01648 82.4602 7.20105Q83.2864 7.37683 83.7874 8.35242Q84.0423 8.81824 84.0774 9.34558Q84.1126 9.86414 83.9368 10.2596Q83.5413 11.1913 82.4954 11.3759Q81.7747 11.4462 81.0364 11.4813Q80.2981 11.5165 78.8567 11.4462Q78.8216 12.5975 78.8391 13.1249Q78.8567 13.6434 78.8567 13.8192L78.8567 17.9589Q78.8567 18.2489 78.8919 18.6971Q78.927 19.1454 78.927 19.3651Q79.1819 19.6552 79.3753 20.1737Q79.5774 20.6923 79.8675 21.0175Q80.1575 21.413 80.4563 21.87Q80.7639 22.3182 81.1243 22.8192Q81.3089 23.1093 81.5022 23.4169Q81.7044 23.7245 81.845 23.9706Q82.3548 24.8759 82.9436 25.9393Q83.5413 26.994 83.7522 28.0399Q83.8225 28.5057 83.7522 29.0682Q83.6819 29.6219 83.3216 29.9823Q82.9261 30.4921 82.2054 30.4921Q81.555 30.4921 80.9397 30.0614Q80.3333 29.6219 79.9378 29.1913Q79.4016 28.5057 78.927 27.785Q78.4612 27.0643 77.9602 26.3524Q77.6702 25.8427 77.2571 25.2362Q76.844 24.621 76.4134 24.1903Q76.053 24.7264 75.6751 25.2889Q75.2971 25.8427 74.972 26.4579Q74.5764 27.1786 74.1458 27.8466Q73.7151 28.5057 73.2054 29.121Q71.9837 30.5624 70.8675 30.5624Q70.5423 30.5624 70.3225 30.4569Q69.6809 30.3075 69.3909 29.5165Q69.2151 28.9803 69.2679 28.2948Q69.3206 27.6093 69.5315 27.1083Q69.7864 26.5634 70.0764 26.0624Q70.3665 25.5526 70.6477 25.0516Q70.8323 24.7616 71.0257 24.4628Q71.2278 24.1552 71.4036 23.8651Q71.6585 23.3641 72.0891 22.6786Q72.5198 21.993 72.9329 21.3427Q73.3548 20.6923 73.7063 20.1561Q74.0667 19.62 74.2513 19.4003L74.2513 11.4462L72.8802 11.4462Q71.7991 11.4462 71.2014 11.4462Q70.6126 11.4462 70.4016 11.3759Q69.8919 11.2616 69.5139 10.8837Q69.136 10.5057 68.9602 9.89929Q68.635 8.88855 69.136 8.06238Q69.4261 7.66687 69.7864 7.39441Q70.1468 7.12195 70.5423 7.05164Q70.6829 7.01648 70.885 7.01648Q71.0872 7.01648 71.263 7.01648L74.3919 7.01648Q74.3919 6.69128 74.427 6.20789Q74.471 5.72449 74.5237 5.24109Q74.5764 4.7489 74.6468 4.30066Q74.7171 3.85242 74.8665 3.56238Q75.0423 3.23718 75.3675 2.99109Q75.6927 2.73621 76.0706 2.61316Q76.4485 2.48132 76.8264 2.4989Q77.2044 2.51648 77.5296 2.69226Q78.2503 3.13171 78.5139 4.16003Q78.7864 5.17957 78.7864 7.01648L80.4036 7.01648ZM100.793 13.3534Q101.119 13.3885 101.532 13.3007Q101.945 13.2128 102.305 13.2128Q102.63 13.1688 103.456 13.1512Q104.283 13.1337 105.346 13.1161Q106.41 13.0985 107.596 13.0985Q108.783 13.0985 109.864 13.0809Q110.945 13.0634 111.806 13.0634Q112.667 13.0634 113.063 13.0634Q113.784 13.0634 114.557 13.0634Q115.33 13.0634 116.165 13.0985Q116.165 12.3778 116.165 11.411Q116.165 10.4354 116.095 9.71472Q115.691 9.71472 114.829 9.71472Q113.968 9.71472 112.87 9.71472Q111.771 9.71472 110.567 9.71472Q109.363 9.71472 108.282 9.7323Q107.201 9.74988 106.313 9.74988Q105.434 9.74988 105.038 9.74988Q103.887 9.74988 102.604 9.71472Q101.329 9.67957 99.9672 9.50378Q99.2816 9.42468 98.974 8.69519Q98.6664 7.95691 98.7016 7.01648Q98.7016 6.19031 99.2904 5.75964Q99.8881 5.32898 100.538 5.14441Q101.329 4.92468 102.068 4.9071Q102.806 4.88953 103.632 4.85437Q104.142 4.85437 104.643 4.87195Q105.144 4.88953 105.654 4.88953L113.968 4.88953Q114.179 4.88953 114.416 4.87195Q114.654 4.85437 114.865 4.88953L115.911 4.88953Q116.271 4.88953 116.596 4.9071Q116.921 4.92468 117.282 4.92468Q117.607 4.92468 117.923 4.92468Q118.248 4.92468 118.609 4.96863Q118.758 4.96863 118.916 4.96863Q119.075 4.96863 119.259 5.03894Q119.329 5.0741 119.435 5.10925Q119.549 5.14441 119.62 5.17957Q120.375 5.53992 120.771 6.19031Q121.096 6.72644 121.202 7.37683Q121.307 8.02722 121.307 8.63367Q121.307 10.3651 121.342 12.3866Q121.386 14.3993 121.307 16.1219Q121.272 16.6317 121.254 17.4755Q121.237 18.3192 121.149 19.2421Q121.061 20.1561 120.912 20.9647Q120.771 21.7733 120.516 22.2479Q120.235 22.7841 119.707 23.1093Q119.189 23.4344 118.609 23.5048Q118.037 23.5751 117.493 23.3817Q116.956 23.1796 116.631 22.6434Q116.306 22.0985 116.174 21.4569Q116.051 20.8065 116.051 20.1385Q116.051 19.4706 116.104 18.7938Q116.165 18.1083 116.165 17.4579L101.004 17.4579Q101.004 17.4579 100.837 17.37Q100.679 17.2733 100.459 17.1327Q100.248 16.9921 100.011 16.7723Q99.7826 16.5526 99.642 16.3065Q99.3871 15.7968 99.3871 15.1552Q99.3871 14.4344 99.6771 14.0389Q99.9232 13.6434 100.213 13.538Q100.503 13.4237 100.793 13.3534ZM100.213 30.202Q99.642 30.1669 99.0795 30.0438Q98.5258 29.912 98.0863 29.6835Q97.6557 29.4462 97.3832 29.0155Q97.1195 28.5848 97.1195 27.8641Q97.1195 27.1434 97.5854 26.5985Q97.8754 26.3085 98.3061 26.1678Q98.7367 26.0272 99.1322 25.9569Q99.5277 25.8778 99.8354 25.8778Q100.143 25.8778 100.178 25.8778L119.874 25.913Q120.806 25.913 121.579 25.9393Q122.353 25.9569 122.968 26.4579Q123.724 27.1434 123.724 28.0048Q123.724 28.5409 123.399 28.9979Q123.074 29.4462 122.537 29.6219Q121.817 29.912 121.043 30.0262Q120.27 30.1317 119.514 30.1669Q116.886 30.2723 114.329 30.2372Q111.771 30.202 109.363 30.202Q106.77 30.202 104.3 30.2372Q101.83 30.2723 100.213 30.202ZM141.498 11.6219Q142.253 11.6923 142.877 11.9296Q143.51 12.1669 144.125 12.5975Q144.556 12.993 144.952 13.4237Q145.347 13.8544 145.707 14.4696L149.917 14.4696L149.917 6.94617Q149.917 6.48035 149.917 5.99695Q149.917 5.50476 150.032 5.03894Q150.102 4.85437 150.155 4.71375Q150.207 4.56433 150.278 4.38855Q150.498 4.0282 150.708 3.83484Q150.928 3.63269 151.324 3.49207Q151.499 3.41296 151.754 3.39539Q152.009 3.37781 152.185 3.37781Q152.8 3.37781 153.064 3.66785Q153.336 3.95789 153.626 4.45886Q153.776 4.67859 153.829 5.0741Q153.881 5.4696 153.916 5.88269Q153.952 6.29578 153.952 6.60339Q153.952 6.91101 153.952 6.98132L153.952 24.1903L153.952 28.2596Q153.952 29.1561 153.899 29.701Q153.846 30.2372 153.556 31.0634Q153.372 31.6083 153.117 31.9598Q152.871 32.3202 152.08 32.3202Q151.86 32.3202 151.482 32.2675Q151.104 32.2147 150.928 32.0741Q150.568 31.8544 150.366 31.371Q150.172 30.8876 150.058 30.3514Q149.953 29.8065 149.935 29.3055Q149.917 28.7958 149.917 28.5057L149.917 26.7831L146.208 26.7831Q146.068 27.2489 145.813 27.8202Q145.417 28.5409 144.969 29.0682Q144.521 29.5868 143.835 29.9823Q142.579 30.703 141.137 30.8524Q139.696 30.9579 138.219 30.3778Q136.848 29.9471 135.987 28.6903Q135.266 27.6796 134.835 26.5634Q134.405 25.4471 134.264 24.1552Q134.185 23.5048 134.115 22.8632Q134.044 22.2128 134.044 21.5975Q134.044 20.9823 134.062 20.4462Q134.08 19.9012 134.15 19.2948Q134.15 18.7147 134.255 18.1434Q134.37 17.5634 134.545 16.9569Q135.196 14.3993 136.954 12.9403Q138.72 11.4813 141.498 11.6219ZM160.183 7.70203Q160.253 10.4003 160.218 13.371Q160.183 16.3417 160.183 18.8993L160.183 27.8993Q160.183 28.8309 160.122 29.701Q160.069 30.5624 159.708 31.3182Q159.498 31.7841 159.032 32.1093Q158.627 32.3641 158.337 32.4169Q158.056 32.4696 157.59 32.3641Q157.045 32.2499 156.703 31.9071Q156.36 31.5643 156.175 31.1337Q155.999 30.703 155.929 30.202Q155.859 29.6923 155.859 29.2264L155.859 7.34167Q155.859 6.94617 155.859 6.42761Q155.859 5.90027 155.929 5.41687Q155.999 4.92468 156.123 4.49402Q156.254 4.06335 156.509 3.80847Q156.905 3.45691 157.186 3.36902Q157.476 3.27234 157.986 3.27234Q158.592 3.27234 159.058 3.61511Q159.533 3.95789 159.744 4.52917Q160.069 5.28503 160.104 6.08484Q160.148 6.87585 160.183 7.70203ZM145.206 6.48035Q145.743 6.48035 146.393 6.65613Q146.894 6.8407 147.219 7.55261Q147.509 8.49304 146.999 9.38953Q146.859 9.5741 146.657 9.74109Q146.463 9.89929 146.288 10.0399Q146.068 10.1102 145.778 10.1893Q145.488 10.2596 145.206 10.2596Q144.916 10.33 144.662 10.33Q144.415 10.33 144.02 10.2596L142.86 10.2596L136.057 10.1454Q135.336 10.1454 134.835 10.0048Q134.334 9.86414 134.044 9.64441Q133.754 9.35437 133.587 8.99402Q133.429 8.63367 133.359 8.13269Q133.359 7.51746 133.939 6.94617Q134.22 6.65613 134.528 6.56824Q134.835 6.48035 135.231 6.48035L137.824 6.48035Q138.219 6.48035 138.219 6.36609Q138.219 6.22546 138.272 6.13757Q138.325 6.04089 138.325 5.97058L138.325 5.57507Q138.325 5.21472 138.43 4.93347Q138.544 4.64343 138.615 4.42371Q138.764 4.24792 138.975 4.05457Q139.195 3.85242 139.476 3.66785Q139.731 3.56238 140.074 3.50964Q140.416 3.45691 140.759 3.50964Q141.102 3.56238 141.366 3.72937Q141.638 3.88757 141.788 4.16882Q141.998 4.45886 141.998 4.71375Q142.069 4.78406 142.086 4.93347Q142.104 5.0741 142.104 5.21472Q142.218 5.4696 142.104 5.7948Q142.104 5.93542 142.104 6.10242Q142.104 6.26062 142.183 6.48035L145.206 6.48035ZM141.243 26.8534Q141.823 26.7479 142.289 26.2733Q142.499 25.9921 142.702 25.6844Q142.904 25.3768 143.044 25.0165Q143.22 24.621 143.29 24.2255Q143.37 23.83 143.44 23.4696Q143.51 23.0389 143.528 22.661Q143.545 22.2831 143.545 21.9227L143.545 20.5165Q143.475 20.121 143.44 19.7606Q143.405 19.4003 143.334 19.0048Q143.264 18.6444 143.185 18.2841Q143.115 17.9237 142.939 17.6337Q142.79 17.3524 142.64 17.0624Q142.499 16.7723 142.289 16.5526Q142.069 16.412 141.831 16.3417Q141.603 16.2714 141.313 16.1923Q141.032 16.1219 140.742 16.1835Q140.452 16.2362 140.162 16.3065Q139.872 16.3768 139.617 16.4471Q139.371 16.5175 139.081 16.7372Q138.72 17.0272 138.439 17.6337Q137.929 19.1454 137.929 20.5165Q137.929 21.3427 137.947 22.0985Q137.964 22.8544 138.114 23.6805Q138.184 24.0409 138.325 24.4628Q138.474 24.8759 138.615 25.3065Q138.764 25.6669 138.975 26.0096Q139.195 26.3524 139.476 26.5634Q139.555 26.6337 139.625 26.6776Q139.696 26.7128 139.872 26.7831Q139.951 26.7831 140.074 26.7831Q140.197 26.7831 140.346 26.8534L141.243 26.8534ZM149.917 22.5292L149.917 18.785L146.859 18.785Q146.929 19.4706 146.964 20.1034Q146.999 20.7362 146.999 21.413Q146.999 21.703 146.999 21.9755Q146.999 22.2479 146.964 22.5292L149.917 22.5292ZM175.886 15.7616Q176.352 16.0516 176.545 16.579Q176.747 17.0975 176.712 17.6776Q176.677 18.2489 176.405 18.7587Q176.132 19.2596 175.631 19.4706Q174.84 19.8661 173.97 19.8661Q173.109 19.8661 172.283 19.8661L167.967 19.8661Q167.352 19.8661 166.684 19.8309Q166.016 19.7958 165.366 19.6727Q164.724 19.5409 164.144 19.2948Q163.573 19.0399 163.177 18.6444Q162.817 18.2489 162.632 17.6249Q162.456 16.9921 162.386 16.3593Q162.316 15.7264 162.333 15.2606Q162.351 14.7948 162.351 14.7596L162.351 6.72644Q162.351 6.69128 162.333 6.44519Q162.316 6.19031 162.351 5.86511Q162.386 5.53992 162.456 5.21472Q162.527 4.88953 162.632 4.71375Q162.957 4.24792 163.283 4.0282Q163.608 3.80847 164.144 3.73816Q164.293 3.73816 164.487 3.72058Q164.689 3.703 164.9 3.703Q165.119 3.703 165.41 3.66785L173.328 3.66785Q174.084 3.66785 174.656 3.80847Q174.981 3.88757 175.306 3.97546Q175.631 4.06335 175.886 4.35339Q176.317 4.78406 176.422 5.39929Q176.493 5.68054 176.51 5.90027Q176.528 6.12 176.457 6.36609Q176.387 7.08679 175.877 7.59656Q175.376 8.09753 174.55 8.09753Q174.48 8.09753 174.278 8.09753Q174.084 8.09753 173.381 8.07996Q172.678 8.06238 171.254 8.06238Q169.839 8.06238 167.282 8.06238L167.282 9.38953Q168.433 9.46863 169.206 9.43347Q169.98 9.38953 170.015 9.38953L171.711 9.38953Q171.887 9.38953 172.063 9.4071Q172.247 9.42468 172.467 9.38953L173.399 9.38953Q173.794 9.38953 174.207 9.46863Q174.62 9.53894 174.981 9.71472Q175.526 10.0048 175.684 10.5848Q175.851 11.1561 175.772 11.6571Q175.737 11.912 175.719 12.1844Q175.702 12.4569 175.526 12.6327Q175.13 13.1688 174.673 13.3007Q174.225 13.4237 173.724 13.4237L167.282 13.4237L167.282 14.4696Q167.282 14.6454 167.317 14.8475Q167.352 15.0409 167.493 15.1903Q167.677 15.3309 167.923 15.3661Q168.178 15.4012 168.363 15.4012L173.188 15.4012Q173.794 15.4012 174.366 15.4012Q174.946 15.4012 175.491 15.5858Q175.702 15.621 175.886 15.7616ZM182.583 17.9589Q182.539 18.3544 182.469 18.7675Q182.399 19.1805 182.188 19.5848Q181.933 20.0507 181.573 20.2616Q181.318 20.4462 181.133 20.5516Q180.957 20.6571 180.632 20.6571Q180.131 20.6571 179.63 20.3759Q179.27 20.1561 179.05 19.8309Q178.839 19.5057 178.725 19.2069Q178.619 18.8993 178.584 18.6884Q178.549 18.4686 178.549 18.4247L178.549 6.58582Q178.514 6.40125 178.567 5.77722Q178.619 5.14441 178.839 4.71375Q179.2 3.95789 180.316 3.85242Q180.922 3.77332 181.318 3.92273Q181.713 4.06335 182.003 4.38855Q182.258 4.67859 182.328 4.95105Q182.399 5.21472 182.469 5.50476Q182.583 5.86511 182.601 6.26062Q182.618 6.65613 182.618 7.05164Q182.618 7.05164 182.601 7.41199Q182.583 7.77234 182.583 8.26453Q182.583 8.74792 182.583 9.21375Q182.583 9.67957 182.583 9.93445Q182.759 9.9696 183.225 9.98718Q183.7 10.0048 184.201 10.0399L184.236 6.94617Q184.201 6.55066 184.218 6.17273Q184.236 5.7948 184.341 5.39929Q184.491 4.85437 184.992 4.31824Q185.572 3.59753 186.688 3.73816Q187.619 3.88757 187.98 4.67859Q188.2 5.10925 188.252 5.72449Q188.305 6.33093 188.27 6.48035L188.27 18.5389Q188.27 18.5741 188.252 18.7938Q188.235 19.0048 188.12 19.3124Q188.015 19.62 187.813 19.9452Q187.619 20.2616 187.259 20.4813Q186.864 20.7362 186.433 20.7362Q185.712 20.7362 185.246 20.3759Q184.851 20.0858 184.631 19.6552Q184.455 19.33 184.359 18.8817Q184.271 18.4247 184.236 17.9413Q184.201 17.4579 184.201 16.9921Q184.201 16.5175 184.201 16.1923L184.201 13.9686L182.583 13.9686L182.583 17.9589ZM184.376 23.1093Q185.853 23.1093 186.749 23.5575Q187.655 24.0057 187.655 24.8407L187.655 29.6571Q187.725 30.4921 187.655 31.2479Q187.584 32.0038 187.057 32.4696Q186.538 32.9354 185.712 32.9354Q185.528 32.9354 185.062 32.9178Q184.596 32.9003 184.411 32.83Q183.946 32.6805 183.673 32.3905Q183.41 32.1093 183.26 31.7489Q183.119 31.3885 183.067 30.9755Q183.014 30.5624 182.979 30.1669Q182.979 30.0175 182.961 29.6044Q182.944 29.1913 182.944 28.743Q182.944 28.2948 182.917 27.8993Q182.9 27.5038 182.865 27.3544Q182.759 27.3192 182.267 27.2841Q181.784 27.2489 180.456 27.2489Q179.305 27.2489 179.033 27.2841Q178.76 27.3192 178.725 27.3192L165.735 27.3192L165.7 27.2841Q165.7 27.2841 165.462 27.2137Q165.225 27.1434 164.935 27.0028Q164.654 26.8534 164.381 26.6073Q164.109 26.3524 164.074 25.9569Q163.898 24.5858 164.548 23.7948Q164.979 23.285 165.48 23.1971Q165.981 23.1093 166.016 23.1093L184.376 23.1093ZM202.893 4.78406Q205.055 5.93542 205.969 7.95691Q206.892 9.9696 206.672 12.7733Q206.452 16.3768 204.633 18.1434Q202.822 19.9012 199.078 19.9012Q198.102 19.9012 197.294 19.9188Q196.485 19.9364 195.765 19.8309Q195.044 19.7255 194.288 19.453Q193.532 19.1805 192.671 18.6093Q190.975 17.493 190.342 15.6913Q189.718 13.8895 189.718 11.9823Q189.718 10.0751 190.394 8.40515Q191.08 6.72644 192.636 5.53992Q193.893 4.52917 195.457 4.06335Q197.021 3.59753 198.603 3.73816Q199.324 3.80847 199.843 3.87Q200.37 3.92273 200.836 4.0282Q201.311 4.13367 201.776 4.31824Q202.242 4.49402 202.893 4.78406ZM196.38 32.7245Q194.903 32.7245 193.998 32.0917Q193.102 31.4589 193.102 30.6327L193.102 25.4471Q193.031 24.6561 193.102 23.83Q193.172 23.0741 193.69 22.6083Q194.218 22.1337 195.044 22.1337Q195.22 22.1337 195.686 22.1512Q196.16 22.1688 196.336 22.2479Q196.811 22.3885 197.074 22.6786Q197.347 22.9686 197.487 23.3466Q197.637 23.7245 197.672 24.1376Q197.707 24.5507 197.742 24.9462Q197.742 25.0868 197.76 25.6141Q197.777 26.1327 197.795 26.7303Q197.812 27.3192 197.83 27.829Q197.848 28.33 197.892 28.4354Q197.566 28.5057 198.445 28.5497Q199.324 28.5848 201.319 28.62Q203.323 28.6552 206.364 28.6552Q209.405 28.6552 213.369 28.62L213.404 28.62Q213.404 28.62 213.633 28.6903Q213.87 28.7606 214.16 28.9276Q214.45 29.0858 214.696 29.3583Q214.951 29.6219 215.021 29.9823Q215.171 31.2831 214.556 32.0038Q214.125 32.5048 213.615 32.6102Q213.114 32.7245 213.079 32.7245L196.38 32.7245ZM214.556 14.7596L214.556 19.8661Q214.556 20.4813 214.336 21.1844Q214.125 21.8876 213.439 22.2128Q212.868 22.6083 212.218 22.6083Q211.567 22.6083 211.066 22.3182Q210.671 22.0985 210.451 21.7821Q210.231 21.4569 210.108 21.1669Q209.985 20.8768 209.95 20.6483Q209.915 20.411 209.915 20.411L209.915 6.62097Q209.915 6.4364 209.968 5.7948Q210.02 5.14441 210.231 4.71375Q210.636 3.95789 211.787 3.85242Q212.394 3.77332 212.982 3.92273Q213.58 4.06335 213.905 4.38855Q214.301 4.88953 214.424 5.50476Q214.556 6.12 214.556 6.7616L214.556 10.7255Q214.696 10.7255 215.092 10.7606Q215.496 10.7958 215.927 10.8134Q216.357 10.8309 216.735 10.8661Q217.113 10.9012 217.254 10.9364Q217.975 11.0858 218.3 11.3583Q218.625 11.6219 218.73 12.0175Q218.801 12.413 218.801 12.9403Q218.801 13.4589 218.59 13.8192Q218.124 14.5399 217.509 14.6542Q216.894 14.7596 215.812 14.7596L214.556 14.7596ZM202.392 13.1688Q202.392 12.3778 202.312 11.6835Q202.242 10.9803 202.005 10.3827Q201.776 9.78503 201.302 9.31921Q200.836 8.85339 200.08 8.56335Q199.254 8.27332 198.278 8.27332Q197.311 8.27332 196.441 8.61609Q195.58 8.95886 194.93 9.66199Q194.288 10.3651 194.103 11.4813Q193.998 12.2372 194.121 13.0106Q194.253 13.7841 194.666 14.4169Q195.079 15.0409 195.817 15.4803Q196.556 15.911 197.672 16.0165Q198.428 16.0868 199.184 15.9989Q199.939 15.911 200.59 15.5858Q201.24 15.2606 201.706 14.6718Q202.172 14.0741 202.392 13.1688ZM225.548 30.8085Q224.748 30.8085 224.177 30.703Q223.852 30.6678 223.474 30.6327Q223.096 30.5975 222.7 30.5975Q222.41 30.5624 222.138 30.5272Q221.874 30.4921 221.584 30.413Q220.969 30.202 220.573 29.7714Q220.397 29.5868 220.23 29.4286Q220.072 29.2616 219.967 29.0858Q219.782 28.8661 219.677 28.33Q219.387 27.1434 219.457 25.8427Q219.492 25.1923 219.492 24.6034Q219.492 24.0057 219.492 23.3993L219.492 20.2968L219.492 17.3876L219.492 14.5399Q219.457 13.7137 219.457 12.993Q219.457 12.2723 219.457 11.5516L219.457 8.99402Q219.457 8.45789 219.457 8.07996Q219.457 7.70203 219.492 7.51746Q219.536 6.79675 219.817 5.97058Q220.143 5.10925 221.118 4.7489Q221.294 4.67859 221.505 4.64343Q221.725 4.60828 221.944 4.52917Q222.34 4.45886 222.806 4.56433Q223.315 4.67859 223.711 4.92468Q224.142 5.24988 224.247 5.72449Q224.353 6.00574 224.44 6.2782Q224.537 6.55066 224.537 6.8407Q224.607 7.12195 224.607 7.41199Q224.607 7.70203 224.607 7.99207L224.607 9.17859Q224.607 9.60925 224.59 9.89929Q224.572 10.1805 224.572 10.4003L224.572 12.3075L224.572 14.83L224.572 17.6688L224.572 20.411L224.572 22.8895Q224.572 23.5048 224.59 23.9969Q224.607 24.4803 224.607 24.8759Q224.607 24.9813 224.625 25.1132Q224.643 25.2362 224.643 25.3768Q224.713 25.5526 224.862 25.7723Q225.187 26.0272 225.398 26.0272L227.666 26.1327Q227.921 26.1678 228.114 26.1678Q228.316 26.1678 228.492 26.1678Q229.248 26.1678 230.039 26.1327Q230.839 26.0975 231.48 26.2645Q232.131 26.4227 232.544 26.9061Q232.957 27.3895 232.957 28.4003L232.957 28.7606Q232.922 29.2968 232.614 29.6571Q232.315 30.0175 231.876 30.2196Q231.445 30.413 230.927 30.4921Q230.408 30.5624 229.934 30.5975Q229.213 30.6327 228.545 30.7206Q227.886 30.8085 227.27 30.8085L226.154 30.8085L225.548 30.8085ZM245.42 28.7255Q245.42 29.1913 245.376 29.7186Q245.341 30.2372 245.27 30.7382Q245.165 31.7137 244.374 32.3641Q244.014 32.5399 243.706 32.6278Q243.398 32.7245 243.108 32.7245Q242.502 32.7245 242.106 32.2499Q241.887 32.0038 241.737 31.7665Q241.597 31.5292 241.526 31.2128Q241.421 30.8876 241.342 30.5624Q241.271 30.2372 241.236 29.8417Q241.236 29.4813 241.219 29.2089Q241.201 28.9364 241.201 28.6903L241.201 19.5848L238.468 19.5848L238.468 28.9012Q238.573 29.7714 238.433 30.6678Q238.327 31.4589 237.967 32.0741Q237.536 32.7245 236.631 32.7245Q236.455 32.7245 236.235 32.6454Q236.016 32.5751 235.805 32.5048Q235.444 32.3202 235.154 32.0389Q234.864 31.7489 234.645 31.3885Q234.434 31.0282 234.363 30.5272Q234.293 30.0526 234.275 29.6219Q234.258 29.1913 234.258 28.7958L234.258 6.12Q234.258 5.03894 234.583 4.28308Q234.979 3.45691 236.165 3.34265Q237.097 3.27234 237.536 3.77332Q237.747 4.06335 237.923 4.33582Q238.107 4.60828 238.213 4.96863Q238.433 5.7948 238.433 6.55066Q238.468 6.94617 238.468 7.27136Q238.468 7.59656 238.468 7.84265L238.468 15.0848L241.201 15.0848L241.201 7.55261L241.201 6.36609Q241.201 5.68054 241.315 4.96863Q241.456 4.38855 241.816 3.88757Q242.212 3.45691 243.038 3.34265Q243.223 3.34265 243.416 3.34265Q243.618 3.34265 243.794 3.41296Q244.225 3.59753 244.444 3.85242Q244.664 4.09851 244.822 4.35339Q244.98 4.60828 245.06 4.92468Q245.235 5.61023 245.306 6.4364Q245.42 7.27136 245.42 7.95691L245.42 9.35437L245.42 28.7255ZM249.24 8.49304Q248.704 7.95691 248.739 7.25378Q248.774 6.55066 248.774 5.82996L248.809 3.05261Q248.845 1.32996 249.583 0.758667Q250.321 0.178589 251.938 0.899292Q252.589 1.18054 252.729 1.88367Q252.879 2.58679 252.879 3.34265L252.879 6.12Q252.879 6.79675 252.817 7.51746Q252.765 8.23816 252.088 8.66882Q251.437 9.06433 250.585 9.02917Q249.741 8.99402 249.24 8.49304ZM255.718 8.49304Q255.182 7.95691 255.217 7.25378Q255.252 6.55066 255.252 5.82996L255.287 3.05261Q255.322 1.32996 256.06 0.758667Q256.799 0.178589 258.416 0.899292Q259.066 1.18054 259.207 1.88367Q259.356 2.58679 259.356 3.34265L259.356 6.12Q259.356 6.79675 259.304 7.51746Q259.251 8.23816 258.565 8.66882Q257.915 9.06433 257.071 9.02917Q256.227 8.99402 255.718 8.49304Z" stroke="#000000" stroke-width="0.500000"/>
</svg>
