<svg width="95.000000" height="46.814453" viewBox="0 0 95 46.8145" fill="none" xmlns="http://www.w3.org/2000/svg" xmlns:xlink="http://www.w3.org/1999/xlink">
	<desc>
			Created with Pixso.
	</desc>
	<defs/>
	<path id="룰렛돌리기 START" d="M16.976 17.6133Q17.3627 17.6602 17.6498 17.8066Q17.9369 17.9531 18.0541 18.334Q18.3412 19.2012 17.433 19.5586Q17.1459 19.6758 16.8529 19.6992Q16.5658 19.7285 16.3021 19.7285L5.14587 19.7285Q4.66541 19.7285 4.14978 19.7168Q3.63416 19.7051 3.10681 19.6758Q2.60291 19.6523 2.26306 19.3184Q1.92908 18.9844 1.8822 18.4277L1.80603 16.752Q1.78259 16.4883 1.80603 16.1309Q1.82947 15.7676 2.04626 15.5273Q2.38611 15.1641 2.94861 15.0703Q3.51111 14.9766 4.03845 14.9766Q4.3783 14.9766 5.15759 14.9766Q5.93689 14.9766 7.27869 14.9883Q8.62634 15 10.601 15Q12.5814 15 15.3177 15L15.3177 14.1328L3.51111 14.1328Q3.27087 14.1328 3.07751 14.1328Q2.89001 14.1328 2.69666 14.0859Q2.47986 14.0391 2.30994 13.9922Q2.14587 13.9453 2.02283 13.752Q1.68884 13.248 1.85876 12.7207Q1.92908 12.5273 2.0697 12.4219Q2.21619 12.3105 2.40955 12.2402Q2.60291 12.1641 2.77869 12.1406Q2.96033 12.1172 3.10681 12.0938Q3.46423 12.0234 3.84509 12.0234Q4.18494 12.0234 4.57751 12.0234Q4.97595 12.0234 5.52673 12.0352Q6.07751 12.0469 6.80994 12.0469Q7.54236 12.0469 8.52673 12.0469Q8.55017 11.7832 8.56189 11.5312Q8.57361 11.2793 8.57361 11.0156Q8.43298 11.0156 7.92908 11.0039Q7.42517 10.9922 6.76306 10.9922Q6.10681 10.9922 5.34509 10.9805Q4.58923 10.9688 3.92712 10.957Q3.27087 10.9453 2.79041 10.9219Q2.30994 10.8926 2.16931 10.8691Q1.78259 10.8223 1.55408 10.8223Q1.32556 10.8223 1.01501 10.5352Q0.704468 10.248 0.704468 9.79102Q0.704468 9.28711 1.01501 8.97656Q1.18494 8.7832 1.47205 8.70117Q1.75916 8.61328 2.02283 8.57812Q2.2865 8.54297 2.49158 8.55469Q2.69666 8.56641 2.72009 8.56641L16.4486 8.56641Q16.806 8.56641 17.1635 8.56641Q17.5267 8.56641 17.8666 8.58984Q18.2006 8.61328 18.5228 8.64844Q18.8451 8.68359 19.1146 8.92383Q19.3783 9.11719 19.4135 9.35742Q19.4486 9.59766 19.4486 9.88477Q19.4486 10.248 19.2435 10.4648Q19.0385 10.6758 18.681 10.7988Q18.2006 10.9922 17.6088 10.9688Q17.0228 10.9453 16.5424 10.9688Q15.3412 11.0156 14.2279 11.0156Q13.1146 11.0156 11.89 11.0156Q11.89 11.2793 11.89 11.5312Q11.89 11.7832 11.8666 12.0469L15.558 12.0469Q16.7826 12.0469 17.4271 12.4219Q18.0775 12.791 18.0775 13.6289L18.0775 15.334Q18.0775 15.668 17.9193 15.9961Q17.767 16.3184 17.3861 16.5352Q17.0697 16.7285 16.7592 16.7402Q16.4486 16.752 16.1381 16.752L4.75916 16.752L4.75916 17.6133L16.976 17.6133ZM5.21619 5.54297Q5.55017 5.54297 6.27087 5.55469Q6.99158 5.56641 7.82947 5.56641Q8.67322 5.56641 9.48767 5.55469Q10.3021 5.54297 10.8588 5.54297L16.6888 5.54297Q17.0697 5.58984 17.3568 5.74805Q17.6498 5.90039 17.767 6.26367Q18.0306 7.125 17.1459 7.48828Q16.8588 7.60547 16.5541 7.62891Q16.2552 7.65234 15.9916 7.65234L5.62634 7.65234Q5.14587 7.65234 4.63025 7.64062Q4.11462 7.62891 3.58142 7.60547Q3.07751 7.58203 2.73181 7.24805Q2.38611 6.9082 2.33337 6.35742Q2.2865 5.95312 2.27478 5.47266Q2.26306 4.99219 2.26306 4.65234Q2.26306 4.38867 2.2865 4.03125Q2.30994 3.66797 2.52673 3.42773Q2.86658 3.07031 3.3822 2.97656Q3.89783 2.87695 4.42517 2.87695Q4.5658 2.87695 4.724 2.87695Q4.8822 2.87695 4.99939 2.90039L15.0306 2.90039L15.0306 2.10938L3.99158 2.10938Q3.72791 2.10938 3.54626 2.10938Q3.37048 2.10938 3.17712 2.0625Q2.96033 2.01562 2.77869 1.96875Q2.60291 1.91602 2.47986 1.72852Q2.16931 1.24805 2.33337 0.697266Q2.45642 0.310547 2.87244 0.216797Q3.29431 0.117188 3.55798 0.0703125Q3.9447 0 4.32556 0Q4.73572 0 5.35681 0.0117188Q5.98376 0.0234375 6.69275 0.0234375Q7.40173 0.0234375 8.08142 0.0234375Q8.76697 0.0234375 9.31775 0.0234375L15.2709 0.0234375Q16.4955 0.0234375 17.14 0.398438Q17.7904 0.767578 17.7904 1.60547L17.7904 3.24023Q17.7904 3.57422 17.6322 3.90234Q17.4799 4.22461 17.0931 4.44141Q16.7826 4.62891 16.3373 4.64062Q15.8978 4.65234 15.6342 4.65234L5.21619 4.65234L5.21619 5.54297ZM23.6995 7.17188L23.6995 8.95312L27.7307 8.95312Q27.971 8.95312 28.2112 8.95312Q28.4514 8.95312 28.6917 8.97656Q29.1018 9 29.3772 9.26367Q29.6526 9.52734 29.7698 9.86133Q30.0628 10.7754 29.1721 11.1328Q28.6448 11.3027 27.971 11.3027L24.2268 11.3027Q23.6995 11.3027 23.1487 11.3027Q22.5979 11.3027 22.0413 11.2559Q21.5139 11.2324 21.18 10.8867Q20.846 10.5352 20.7932 9.96094Q20.7698 9.74414 20.7464 9.28711Q20.7229 8.83008 20.7112 8.32617Q20.6995 7.82227 20.6995 7.36523Q20.6995 6.9082 20.7229 6.7207Q20.6995 6.45703 20.7229 6.1582Q20.7464 5.85352 20.9632 5.58984Q21.2971 5.20898 21.8831 5.12695Q22.4749 5.03906 23.0257 5.03906L26.2893 5.03906L26.2893 3.42773L23.0784 3.45703Q22.9319 3.48047 22.7737 3.45703Q22.6214 3.42773 22.4514 3.42773Q21.971 3.42773 21.6135 3.35742Q21.18 3.26367 20.9397 2.90039Q20.5823 2.2793 20.7698 1.62891Q20.8928 1.22461 21.3206 1.03125Q21.7542 0.837891 22.0413 0.791016Q22.4046 0.720703 22.8382 0.720703L24.9007 0.720703L26.4592 0.744141Q27.7073 0.744141 28.3928 1.23633Q29.0784 1.72852 29.0784 2.61328L29.0784 5.34961Q29.0784 5.68359 28.9085 6.16406Q28.7385 6.64453 28.3577 6.88477Q27.8069 7.22461 26.4358 7.17188L23.6995 7.17188ZM34.1409 14.373Q35.0257 15 35.7698 15.627Q36.5139 16.248 37.3577 16.916Q37.6448 17.1562 38.0257 17.4082Q38.4124 17.6602 38.4827 18.0703Q38.5589 18.4043 38.4007 18.7676Q38.2425 19.125 37.9788 19.3418Q37.5745 19.6758 37.1878 19.6289Q36.801 19.582 36.3733 19.3887Q35.4827 18.9844 34.7854 18.4805Q34.094 17.9766 33.2737 17.4199Q32.8694 17.1562 32.4827 16.8574Q32.1018 16.5586 31.7151 16.2949Q31.4514 16.1016 31.1643 15.8613Q30.8772 15.6211 30.4905 15.668Q30.1565 15.6973 29.9632 15.8145Q29.7698 15.9316 29.5296 16.125Q29.2659 16.3184 28.844 16.5586Q28.428 16.7988 28.2112 16.9922Q27.5901 17.5195 26.8577 18.0586Q26.1253 18.5977 25.428 18.9609Q25.1643 19.1016 24.8772 19.2422Q24.5901 19.3887 24.2854 19.4707Q23.9866 19.5586 23.676 19.5469Q23.3655 19.5352 23.0784 19.3887Q22.6917 19.2012 22.5217 18.8145Q22.3577 18.4277 22.4749 18.0234Q22.5979 17.6133 23.0139 17.3027Q23.4358 16.9922 23.7229 16.752Q24.637 16.0547 25.6917 15.4219Q26.7464 14.7832 27.6839 14.1094Q28.094 13.7988 28.4866 13.5703Q28.885 13.3418 29.2893 13.0078Q29.7698 12.6211 30.1038 12.4453Q30.4436 12.2637 30.7542 12.2754Q31.0706 12.2871 31.4046 12.4688Q31.7385 12.6445 32.219 13.0078L34.1409 14.373ZM34.428 7.62891L34.428 9.81445Q34.4046 10.0781 34.3577 10.3535Q34.3108 10.6289 34.1643 10.8926Q33.9475 11.2324 33.7542 11.3496Q33.5667 11.4727 33.4436 11.543Q33.3264 11.6133 33.1331 11.6133Q32.7698 11.6133 32.4593 11.4199Q32.219 11.2793 32.0725 11.0625Q31.9319 10.8457 31.844 10.6582Q31.762 10.4648 31.7385 10.3066Q31.7151 10.1484 31.7151 10.1484L31.7151 7.3418L31.1878 7.3418Q30.7776 7.36523 30.2971 7.27148Q29.8225 7.17188 29.5061 6.69727Q29.3655 6.45703 29.3772 6.11133Q29.3889 5.75977 29.4358 5.49609Q29.5061 5.23242 29.6995 5.05078Q29.8928 4.86914 30.3733 4.77539Q30.4905 4.72852 30.9124 4.7168Q31.3342 4.70508 31.7151 4.67578L31.7151 2.23242Q31.6917 2.10938 31.7385 1.69336Q31.7854 1.27148 31.9085 0.984375Q32.1721 0.480469 32.8928 0.404297Q33.637 0.310547 34.0178 0.767578Q34.1878 0.960938 34.2346 1.14258Q34.2815 1.31836 34.3577 1.51172Q34.428 1.75195 34.4163 2.01562Q34.4046 2.2793 34.4046 2.54297L34.428 7.62891ZM35.5061 2.44922Q35.5061 2.17969 35.5061 1.91602Q35.5061 1.65234 35.5823 1.41211Q35.7229 1.00781 36.01 0.697266Q36.2034 0.457031 36.4671 0.363281Q36.7307 0.263672 37.1409 0.310547Q37.7854 0.404297 38.0257 0.931641Q38.1721 1.22461 38.1956 1.62305Q38.219 2.01562 38.1956 2.13281L38.1956 10.8926Q38.1956 10.916 38.1839 11.0625Q38.1721 11.209 38.1077 11.4141Q38.0491 11.6133 37.9143 11.8301Q37.7854 12.0469 37.5452 12.1934Q37.3811 12.2871 37.2698 12.3223Q37.1643 12.3574 36.971 12.3574Q36.5901 12.3574 36.18 12.1172Q36.0628 12.0234 35.9632 11.9062Q35.8694 11.7832 35.7698 11.6367Q35.4124 10.9688 35.4475 10.166Q35.4827 9.35742 35.4827 8.61328Q35.4827 8.58984 35.4827 8.13281Q35.4827 7.67578 35.4827 7.00781Q35.4827 6.33398 35.4827 5.55469Q35.4827 4.77539 35.4827 4.10156Q35.4827 3.42773 35.4944 2.96484Q35.5061 2.49609 35.5061 2.44922ZM55.0023 8.41992Q55.4066 8.44922 55.8285 8.54297Q56.2503 8.63672 56.5843 8.90039Q56.9183 9.16406 56.9183 9.59766Q56.9183 9.83789 56.8363 10.125Q56.7542 10.4121 56.6078 10.5352Q56.4144 10.7285 56.1156 10.8105Q55.8167 10.8926 55.5296 10.9336Q55.2425 10.9688 55.0375 10.9688Q54.8324 10.9688 54.8089 10.9688L42.0179 10.9922Q41.4613 11.0156 40.8753 10.9922Q40.2894 10.9688 39.8792 10.6289Q39.3285 10.2246 39.3285 9.69727Q39.3285 9.35742 39.557 9.03516Q39.7855 8.71289 40.1664 8.58984Q40.6703 8.41992 41.1976 8.4375Q41.7308 8.44922 42.2816 8.41992Q42.8558 8.39648 43.3128 8.39648Q43.7699 8.39648 44.1859 8.39648Q44.6078 8.39648 45.0648 8.4082Q45.5218 8.41992 46.1195 8.41992L46.1195 7.10156Q45.0179 7.07812 43.8519 7.05469Q42.6859 7.03125 41.6078 7.03125Q41.0335 7.03125 40.7054 6.84961Q40.3832 6.66797 40.225 6.3457Q40.0726 6.02344 40.0492 5.57812Q40.0257 5.13281 40.0257 4.62891L40.0257 2.25586Q40.0257 1.125 40.5531 0.621094Q41.0804 0.117188 42.182 0.117188L53.3441 0.117188Q53.8246 0.117188 54.2523 0.158203Q54.6859 0.193359 55.1664 0.380859Q55.5531 0.550781 55.7699 0.902344Q55.9867 1.24805 55.9574 1.65234Q55.9105 2.0625 55.682 2.36133Q55.4535 2.66016 55.0492 2.75977Q54.5687 2.87695 53.7542 2.87695Q53.4378 2.87695 53.2445 2.86523Q53.057 2.85352 53.0335 2.85352L50.8246 2.85352Q49.266 2.85352 47.725 2.85352Q46.1898 2.85352 44.6546 2.7832Q44.3675 2.75977 44.0687 2.75977Q43.7699 2.75977 43.5062 2.85352Q43.3597 2.90039 43.3011 3.05859Q43.2425 3.2168 43.225 3.43359Q43.2132 3.64453 43.225 3.87305Q43.2425 4.10156 43.2894 4.24805Q43.6234 4.29492 43.9574 4.30664Q44.2972 4.31836 44.6312 4.3418L53.3207 4.31836Q53.6312 4.31836 54.0355 4.35352Q54.4457 4.38867 54.8148 4.5Q55.1898 4.60547 55.4652 4.81055Q55.7464 5.01562 55.8167 5.34961Q55.9339 5.83008 55.7757 6.16992Q55.6234 6.50391 55.3246 6.69727Q55.0257 6.88477 54.639 6.98438Q54.2582 7.07812 53.8949 7.07812Q53.6781 7.07812 53.1507 7.08984Q52.6234 7.10156 51.973 7.11328Q51.3285 7.125 50.6546 7.125Q49.9867 7.125 49.4828 7.125Q49.5062 7.46484 49.5179 7.79883Q49.5296 8.13281 49.5296 8.41992Q50.1976 8.41992 50.9417 8.4082Q51.6859 8.39648 52.4183 8.39648Q53.1507 8.39648 53.8246 8.39648Q54.4984 8.39648 55.0023 8.41992ZM55.1195 17.9004Q55.5062 17.9531 55.7933 18.0996Q56.0804 18.2402 56.1976 18.6211Q56.4906 19.4883 55.5765 19.8457Q55.2894 19.9688 54.9964 19.9922Q54.7093 20.0156 54.4457 20.0156L43.2894 20.0156Q42.8089 20.0156 42.2933 20.0039Q41.7777 19.9922 41.2503 19.9688Q40.7464 19.9453 40.4066 19.6055Q40.0726 19.2715 40.0257 18.7207L39.9496 16.9922Q39.9261 16.7285 39.9496 16.3066Q39.9789 15.8848 40.1898 15.6445Q40.5296 15.2871 41.0921 15.1934Q41.6546 15.0938 42.182 15.0938Q42.5218 15.0938 43.266 15.0938Q44.0101 15.0938 45.305 15.1055Q46.6 15.1172 48.5453 15.1172Q50.4906 15.1172 53.221 15.1172L53.221 14.1797L41.6546 14.1797Q41.4144 14.1797 41.221 14.1797Q41.0335 14.1797 40.8402 14.1328Q40.6234 14.0859 40.4535 14.0391Q40.2894 13.9922 40.1664 13.7988Q39.8324 13.2715 40.0023 12.7207Q40.0726 12.4805 40.3011 12.3516Q40.5296 12.2168 40.805 12.1465Q41.0804 12.0703 41.3792 12.0469Q41.6781 12.0234 41.9417 12.0234L53.7015 12.0234Q54.9261 12.0234 55.4535 12.4336Q55.9867 12.8379 55.9867 13.6758L55.9867 15.5742Q55.9867 15.9082 55.8285 16.2363Q55.6703 16.5586 55.2894 16.7754Q54.9789 16.9688 54.6625 16.9805Q54.3519 16.9922 54.0414 16.9922L42.9027 16.9922L42.9027 17.9004L55.1195 17.9004ZM61.5055 11.4727Q61.2652 11.5195 61.1715 11.666Q61.0777 11.8066 61.0543 12Q61.0309 12.1934 61.0543 12.3867Q61.0777 12.5742 61.0777 12.7441Q61.0777 12.8848 61.0777 13.1133Q61.0777 13.3418 61.0777 13.5938Q61.0777 13.8457 61.0895 14.0859Q61.1012 14.3262 61.1246 14.4961Q61.1246 14.6367 61.1129 14.8887Q61.1012 15.1406 61.2184 15.2637Q61.2184 15.3105 61.2652 15.334Q61.318 15.3574 61.3648 15.3574Q61.9156 15.3574 62.5836 15.3574Q63.2574 15.3574 63.8141 15.3105Q64.652 15.3105 65.5719 15.2988Q66.4977 15.2871 67.3414 15.3574Q67.6754 15.4043 67.857 15.5273Q68.0387 15.6445 68.1559 15.8379Q68.3023 16.0312 68.3492 16.2598Q68.3961 16.4883 68.3961 16.752Q68.443 17.0391 68.3609 17.291Q68.2789 17.543 68.1559 17.6836Q68.0387 17.8301 67.8805 17.9414Q67.7223 18.0469 67.5348 18.1641Q67.0543 18.3809 66.5855 18.3691Q66.1168 18.3574 65.6129 18.4043Q65.1793 18.4043 64.6285 18.4336Q64.0777 18.457 63.6207 18.4043Q63.2574 18.3574 62.8121 18.3809Q62.3727 18.4043 62.0387 18.4043Q61.6988 18.3574 61.3883 18.3809Q61.0777 18.4043 60.7379 18.4043Q60.1637 18.3574 59.5836 18.2871Q59.0094 18.2168 58.5348 17.877Q58.1949 17.6836 58.0309 17.2324Q57.8844 16.9453 57.8082 16.5879Q57.7379 16.2246 57.7906 15.8848Q57.8141 15.3574 57.8023 14.7246Q57.7906 14.0859 57.773 13.4414Q57.7613 12.791 57.7496 12.1582Q57.7379 11.5195 57.7379 10.9453Q57.7379 10.5117 57.7262 10.0195Q57.7145 9.52734 57.9313 9.16406Q58.148 8.83008 58.4117 8.67773Q58.6754 8.51953 58.9742 8.47266Q59.2789 8.41992 59.6012 8.4375Q59.9234 8.44922 60.2574 8.44922L62.4664 8.44922Q62.6129 8.44922 62.8648 8.44922Q63.1168 8.44922 63.3805 8.4375Q63.6441 8.41992 63.9078 8.4082Q64.1715 8.39648 64.318 8.34961Q64.5348 8.2793 64.6051 8.0625Q64.7223 7.43555 64.734 6.69727Q64.7457 5.95312 64.6988 5.32617Q64.6988 5.0625 64.6988 4.6582Q64.6988 4.24805 64.5582 4.03125Q64.3883 3.79102 63.8141 3.79102L59.3492 3.83789Q59.0094 3.83789 58.5992 3.75586Q58.1949 3.66797 57.9781 3.4043Q57.9078 3.28711 57.8316 3.18164Q57.7613 3.07031 57.691 2.87695Q57.4977 2.23242 57.7965 1.70508Q58.1012 1.17188 58.7691 1.03125Q59.3492 0.908203 59.9234 0.949219Q60.4977 0.984375 61.0777 0.931641L64.6988 0.931641Q65.1793 0.931641 65.6832 0.931641Q66.1871 0.931641 66.6676 1.07812Q67.1715 1.22461 67.5348 1.79883Q67.5816 1.91602 67.6051 2.01562Q67.6285 2.10938 67.6754 2.25586Q67.7223 2.37305 67.7457 2.47266Q67.7691 2.56641 67.7691 2.68359Q67.8219 3.09375 67.8219 3.65039Q67.8219 4.20117 67.8219 4.55859Q67.8219 5.32617 67.8453 6.19336Q67.8688 7.05469 67.8688 7.82227Q67.8688 8.61328 67.857 9.35742Q67.8453 10.1016 67.6285 10.6523Q67.3883 11.1328 66.9547 11.2793Q66.5504 11.4727 66.0699 11.4492Q65.5895 11.4199 65.1793 11.4199Q64.9156 11.4199 64.5523 11.4375Q64.1949 11.4492 63.8316 11.4492Q63.4742 11.4492 63.152 11.4609Q62.8297 11.4727 62.6129 11.4727Q62.4195 11.4727 62.2848 11.4609Q62.1559 11.4492 62.0445 11.4375Q61.9391 11.4199 61.816 11.4375Q61.6988 11.4492 61.5055 11.4727ZM74.5895 17.3262Q74.5426 17.6133 74.5133 17.8887Q74.4898 18.1641 74.3961 18.457Q74.3492 18.5508 74.3258 18.627Q74.3023 18.6973 74.2496 18.791Q74.0855 19.125 73.8219 19.3184Q73.2652 19.6523 72.5973 19.4883Q72.2105 19.4121 71.9703 19.2012Q71.7535 19.0078 71.648 18.709Q71.5426 18.4043 71.4781 18.1172Q71.4195 17.8301 71.4195 17.6133Q71.4195 17.3965 71.4195 17.373L71.4195 3.24023Q71.4195 2.95312 71.4195 2.61914Q71.4195 2.2793 71.4664 1.94531Q71.5133 1.60547 71.607 1.31836Q71.7066 1.03125 71.8766 0.861328Q72.1402 0.597656 72.4273 0.539062Q72.7145 0.480469 73.0543 0.480469Q73.4586 0.480469 73.8043 0.708984Q74.1559 0.931641 74.3023 1.3418Q74.5133 1.8457 74.5367 2.40234Q74.566 2.95312 74.5895 3.50391L74.5895 3.62109Q74.6363 5.47266 74.6129 7.06641Q74.5895 8.66016 74.5895 10.3887L74.5895 16.4648Q74.5895 16.6758 74.6012 16.8926Q74.6129 17.1094 74.5895 17.3262ZM93.1665 17.7832Q93.1197 18.0703 93.0962 18.3457Q93.0728 18.6211 92.9732 18.9082Q92.9263 19.0078 92.9029 19.0781Q92.8794 19.1484 92.8326 19.248Q92.6626 19.582 92.399 19.7754Q91.8482 20.1094 91.1744 19.9453Q90.7935 19.8691 90.5533 19.6523Q90.3365 19.4648 90.2251 19.1602Q90.1197 18.8613 90.0611 18.5742Q90.0025 18.2871 90.0025 18.0703Q90.0025 17.8535 90.0025 17.8301L90.0025 3Q90.0025 2.71289 90.0025 2.37891Q90.0025 2.03906 90.0494 1.70508Q90.0962 1.36523 90.19 1.07812Q90.2896 0.791016 90.4537 0.621094Q90.7173 0.357422 91.0044 0.298828Q91.2974 0.240234 91.6314 0.240234Q92.0415 0.240234 92.3873 0.46875Q92.7388 0.697266 92.8794 1.10156Q93.0962 1.60547 93.1197 2.16211Q93.1431 2.71289 93.1665 3.26367L93.1665 3.38086Q93.2134 5.23242 93.19 7.17773Q93.1665 9.11719 93.1665 10.8457L93.1665 16.916Q93.1665 17.1328 93.1783 17.3496Q93.19 17.5664 93.1665 17.7832ZM81.8404 15.4277Q81.8169 15.1406 81.8169 14.8535Q81.8169 14.5664 81.8169 14.2793L81.8169 6.64453Q81.8169 6.26367 81.8169 5.88281Q81.8169 5.49609 81.7701 5.08594Q81.7466 4.96875 81.7056 4.75195Q81.6705 4.53516 81.5533 4.48828Q81.4302 4.41211 81.272 4.42969Q81.1197 4.44141 80.9732 4.41211Q80.8091 4.38867 80.6509 4.41797Q80.4986 4.44141 80.3287 4.41211L79.1978 4.41211Q78.7935 4.44141 78.3833 4.41797Q77.9732 4.38867 77.5689 4.41211Q77.3755 4.44141 77.2173 4.42969Q77.065 4.41211 76.8716 4.41211Q76.608 4.41211 76.3208 4.38867Q76.0337 4.36523 75.7935 4.20117Q75.4537 3.96094 75.3306 3.60352Q75.2134 3.24023 75.2134 2.85352Q75.19 2.39648 75.4068 1.94531Q75.5298 1.65234 75.7173 1.53516Q75.8404 1.41211 76.0689 1.33008Q76.2974 1.24805 76.4615 1.20117Q76.9654 1.07812 77.5162 1.06641Q78.0728 1.05469 78.6001 1.05469L82.7779 1.05469Q83.0884 1.10156 83.4341 1.13672Q83.7857 1.17188 84.0728 1.29492Q84.2662 1.36523 84.4419 1.48828Q84.6236 1.60547 84.7466 1.77539Q84.9576 2.10938 84.9927 2.44922Q85.0337 2.7832 85.0806 3.19336Q85.1275 3.86133 85.1275 4.52344Q85.1275 5.17969 85.1275 5.85352L85.1275 13.7285Q85.1275 13.752 85.1392 14.1035Q85.1509 14.4492 85.1509 14.918Q85.1509 15.3809 85.1509 15.8965Q85.1509 16.4121 85.1275 16.7988Q85.104 17.0391 85.0572 17.3027Q85.0103 17.5664 84.899 17.8066Q84.7935 18.0469 84.6001 18.2402Q84.4068 18.4277 84.0962 18.5508Q83.6861 18.7207 83.2818 18.7207Q82.9654 18.7207 82.6548 18.5918Q82.3443 18.457 82.2212 18.1934Q81.8404 17.4199 81.8404 16.4883L81.8404 15.4277ZM26.4345 38.8301Q26.5517 39.1641 26.6103 39.5859Q26.6748 40.0078 26.6748 40.4414Q26.6748 40.8691 26.6103 41.291Q26.5517 41.7129 26.458 42.0234Q26.0713 43.3652 24.917 44.2676Q23.7685 45.1641 22.292 45.5742Q20.8154 45.9844 19.2451 45.8613Q17.6748 45.7441 16.4502 45.0703Q15.6826 44.6367 15.1259 44.0156Q14.5752 43.3887 14.1943 42.6211Q14.0478 42.3574 14.0127 42.0117Q13.9775 41.6602 14.0713 41.3379Q14.1709 41.0156 14.3818 40.7637Q14.5986 40.5117 14.9853 40.4121Q15.2255 40.3652 15.5244 40.3652Q15.8232 40.3652 16.1103 40.4531Q16.3974 40.5352 16.6377 40.7168Q16.8779 40.8926 17.0244 41.209Q17.288 41.7129 17.7802 42.1348Q18.2724 42.5508 18.8232 42.8145Q19.6142 43.0781 20.417 43.0312Q21.2255 42.9844 21.8818 42.6738Q22.5439 42.3574 22.9482 41.8184Q23.3584 41.2793 23.3584 40.582Q23.3584 40.0078 23.1884 39.6387Q23.0244 39.2637 22.7255 39.0117Q22.4267 38.7598 22.0048 38.5898Q21.583 38.4199 21.0791 38.3027Q20.5048 38.1797 19.913 38.1328Q19.3271 38.0859 18.7236 38.0156Q18.1259 37.9453 17.5517 37.8281Q16.9775 37.7051 16.4267 37.4648Q15.3193 37.0078 14.7451 36.0703Q14.1709 35.1328 14.0595 34.0547Q13.9541 32.9766 14.3115 31.9102Q14.6748 30.8379 15.4658 30.0703Q16.2334 29.373 17.2998 29.0742Q18.3662 28.7754 19.6611 28.7285Q20.3818 28.7051 21.1142 28.7754Q21.8466 28.8457 22.5322 29.0156Q23.2177 29.1797 23.8037 29.4492Q24.3896 29.7129 24.8232 30.0703Q25.1338 30.3105 25.4443 30.709Q25.7607 31.1016 25.9248 31.5469Q26.0947 31.9922 26.0361 32.4023Q25.9775 32.8066 25.5205 33.0938Q25.1338 33.334 24.788 33.2988Q24.4423 33.2637 24.1259 33.082Q23.8154 32.9004 23.5283 32.6602Q23.2412 32.4199 23.0009 32.2324Q22.3505 31.752 21.3896 31.582Q20.4345 31.4121 19.5908 31.5117Q19.0634 31.582 18.6064 31.752Q18.1494 31.916 17.8271 32.209Q17.5048 32.4961 17.3232 32.918Q17.1416 33.334 17.1943 33.8613Q17.2177 34.248 17.417 34.5117Q17.622 34.7754 17.9209 34.9453Q18.2255 35.1094 18.583 35.209Q18.9463 35.3027 19.3037 35.3496Q20.3818 35.4961 21.4599 35.5664Q22.5439 35.6367 23.5752 36.0469Q24.6298 36.457 25.374 37.1543Q26.1181 37.8457 26.4345 38.8301ZM40.381 29.5664Q40.6447 29.877 40.6447 30.2168Q40.6447 30.3574 40.6329 30.5156Q40.6212 30.668 40.5978 30.791Q40.5216 31.0547 40.2814 31.2949Q40.0939 31.4414 39.754 31.5117Q39.59 31.5586 39.42 31.582Q39.2501 31.6055 39.0626 31.6523Q38.8927 31.6758 38.7228 31.6758Q38.5587 31.6758 38.3654 31.6758L37.1408 31.6758Q36.7072 31.7051 36.2853 31.7051Q35.8693 31.7051 35.4591 31.7051Q35.4825 32.4492 35.4825 33.2988Q35.4825 34.1484 35.4708 35.2793Q35.4591 36.4043 35.4474 37.8926Q35.4357 39.3809 35.4357 41.3496L35.4357 43.1719Q35.4357 43.4121 35.4591 43.5352Q35.4591 43.6289 35.4591 43.7168Q35.4591 43.7988 35.4357 43.916Q35.3888 44.1328 35.3654 44.4199Q35.3654 44.543 35.3419 44.6543Q35.3185 44.7598 35.2658 44.877Q35.172 44.9766 35.172 45.0234L35.1017 45.1641Q34.9786 45.4043 34.6447 45.6211Q34.1173 45.8848 33.4669 45.7441Q33.0626 45.6973 32.8458 45.5273Q32.629 45.3105 32.5294 45.0938Q32.3888 44.8301 32.3654 44.5898Q32.2892 44.373 32.2892 44.1328L32.2892 31.7988Q32.1486 31.7988 31.6915 31.7988Q31.2345 31.7988 30.7189 31.7871Q30.2033 31.7754 29.7462 31.752Q29.2892 31.7285 29.1251 31.7051Q28.9786 31.6758 28.6798 31.6289Q28.381 31.582 28.1876 31.5352Q27.6837 31.3887 27.3966 31.0781Q27.1329 30.7676 27.1329 30.3809Q27.1329 30.2402 27.1329 30.0996Q27.1329 29.9531 27.1798 29.8301Q27.2501 29.543 27.5665 29.3496Q27.6603 29.2793 27.8654 29.1738Q28.0704 29.0625 28.2579 29.0156Q28.5509 28.916 28.9786 28.8691Q29.172 28.8457 29.3654 28.8457Q29.5587 28.8457 29.7697 28.8457Q30.6134 28.8457 31.3693 28.8457Q32.1251 28.8457 32.963 28.8223Q34.3575 28.7988 35.7345 28.8105Q37.1173 28.8223 38.4825 28.8691Q38.7931 28.8926 39.0802 28.9453Q39.3732 28.9922 39.6603 29.1094Q39.8771 29.1797 40.0646 29.291Q40.2579 29.3965 40.381 29.5664ZM53.7516 44.1797Q53.775 44.3262 53.7867 44.4609Q53.7985 44.5898 53.7985 44.7598Q53.7985 45.0469 53.6344 45.2871Q53.5582 45.4043 53.4352 45.5156Q53.318 45.6211 53.1539 45.6973Q52.5504 46.0312 51.8824 45.9316Q51.5426 45.8379 51.2789 45.6211Q51.232 45.5742 51.2086 45.5625Q51.1852 45.5508 51.1617 45.5039Q51.1383 45.4805 51.109 45.4453Q51.0856 45.4043 51.0387 45.3809Q50.9215 45.2637 50.8453 45.1582Q50.775 45.0469 50.7047 44.9238Q50.6578 44.8066 50.5934 44.7012Q50.5348 44.5898 50.4645 44.4727Q50.4176 44.373 50.3649 44.291Q50.318 44.209 50.2945 44.1094Q50.2008 43.8926 50.1774 43.7285L49.6735 42.5508Q48.0153 42.5508 46.3688 42.5625Q44.7281 42.5742 43.0699 42.5508L42.566 43.7285Q42.5192 43.8223 42.5074 43.9219Q42.4957 44.0156 42.4488 44.1094Q42.402 44.209 42.361 44.291Q42.3258 44.373 42.2789 44.4727Q42.2086 44.5898 42.1442 44.7012Q42.0856 44.8066 42.0153 44.9238Q41.9684 45.0469 41.8922 45.1582Q41.8219 45.2637 41.7047 45.3809Q41.6578 45.4043 41.6285 45.4453Q41.6051 45.4805 41.5817 45.5039Q41.5582 45.5508 41.5348 45.5625Q41.5113 45.5742 41.4645 45.6211Q41.2008 45.8379 40.8668 45.9316Q40.193 46.0312 39.5895 45.6973Q39.4254 45.6211 39.3024 45.5156Q39.1852 45.4043 39.1149 45.2871Q38.9449 45.0469 38.9449 44.7598Q38.9449 44.5898 38.9567 44.4609Q38.9684 44.3262 38.9918 44.1797Q39.0387 43.9688 39.1149 43.752Q39.1852 43.5352 39.1852 43.5352L44.1774 31.248L44.318 30.8613Q44.3707 30.7207 44.441 30.6035Q44.5113 30.4805 44.5582 30.3105Q44.6813 30 44.8219 29.7598Q44.8981 29.6133 44.9918 29.4961Q45.0856 29.373 45.1852 29.2559Q45.3258 29.0625 45.5895 28.9453Q45.9293 28.8223 46.3688 28.8223Q46.8141 28.8223 47.1539 28.9453Q47.4176 29.0625 47.5582 29.2559Q47.7281 29.4727 47.9215 29.7598Q48.0621 30 48.1852 30.3105Q48.232 30.4805 48.3024 30.6035Q48.3785 30.7207 48.4254 30.8613L48.566 31.248L53.5582 43.5352Q53.5582 43.5352 53.6344 43.752Q53.7047 43.9688 53.7516 44.1797ZM48.0621 38.3027Q47.7516 37.6055 47.4235 36.8613Q47.1012 36.1172 46.7438 35.3496Q46.65 35.1328 46.5504 34.9043Q46.4567 34.6758 46.3629 34.4648Q46.2867 34.6758 46.1871 34.9043Q46.0934 35.1328 45.9996 35.3496Q45.6422 36.1172 45.3141 36.8613Q44.9918 37.6055 44.6813 38.3027L44.2477 39.3574L48.4957 39.3574L48.0621 38.3027ZM67.6018 44.7598Q67.6252 45 67.5549 45.2168Q67.508 45.3574 67.4202 45.457Q67.3381 45.5508 67.2209 45.6445Q67.0041 45.791 66.6936 45.9082Q66.5002 45.9609 66.3186 45.9961Q66.1428 46.0312 65.9495 45.9844Q65.5627 45.9609 65.2756 45.6973Q64.8655 45.3574 64.6018 44.9531Q64.4846 44.7598 64.3381 44.5195Q64.1975 44.2793 64.0745 44.0156L61.4143 38.9531Q61.2209 38.9531 61.0276 38.9648Q60.8342 38.9766 60.6467 39Q60.1428 39.0469 59.6975 39.0234Q59.2522 39 58.7717 39.0234L58.3147 39.0234L58.3147 43.3652Q58.3147 43.5586 58.303 43.7285Q58.2913 43.8926 58.2913 44.0859Q58.2913 44.209 58.2795 44.4023Q58.2678 44.5898 58.2444 44.7598Q58.1975 45.0234 58.0276 45.2988Q57.8577 45.5742 57.5705 45.7676Q57.0666 46.0781 56.3459 45.9316Q56.0354 45.8613 55.7483 45.6973Q55.6545 45.6211 55.5784 45.5156Q55.508 45.4043 55.4612 45.2871Q55.4143 45.1641 55.3733 45.0352Q55.3381 44.9004 55.2913 44.7832Q55.2209 44.543 55.2209 44.3262L55.2209 30.6973Q55.2209 30.5508 55.2327 30.3984Q55.2444 30.2402 55.2678 30.1172Q55.2913 29.8535 55.4377 29.5898Q55.508 29.3027 55.678 29.1797Q55.8186 29.0391 56.1174 28.9336Q56.4221 28.8223 56.9963 28.8457Q58.0745 28.8691 59.1291 28.8691Q60.1897 28.8691 61.2444 28.916Q61.9416 28.9688 62.7209 29.0742Q63.5002 29.1797 64.1741 29.4492Q64.6018 29.6133 64.9651 29.7832Q65.4221 30.0469 65.6858 30.2871Q66.5237 31.0547 66.9573 32.1387Q67.3909 33.2168 67.3909 34.3184Q67.3909 35.6133 66.7756 36.6973Q66.1663 37.7754 64.8186 38.3027Q64.7717 38.3496 64.6838 38.3613Q64.6018 38.373 64.5549 38.3965L66.7639 42.8379L66.9807 43.2246Q67.0276 43.3184 67.0979 43.4414Q67.1741 43.5586 67.2209 43.6758Q67.2913 43.7988 67.3498 43.9453Q67.4143 44.0859 67.4846 44.209Q67.5549 44.543 67.6018 44.7598ZM61.6018 36.2168Q62.0354 36.2168 62.428 36.0586Q62.8264 35.9004 63.1487 35.6367Q63.4768 35.373 63.6936 35.0273Q63.9104 34.6758 63.9338 34.2715Q64.0276 33.0703 63.3069 32.4844Q62.5862 31.8926 61.4143 31.8457Q60.717 31.7988 59.885 31.7988Q59.0588 31.7988 58.3147 31.7988Q58.3381 32.7832 58.3264 33.8027Q58.3147 34.8223 58.3147 36.2168L61.6018 36.2168ZM80.737 29.5664Q81.0007 29.877 81.0007 30.2168Q81.0007 30.3574 80.9889 30.5156Q80.9772 30.668 80.9538 30.791Q80.8776 31.0547 80.6374 31.2949Q80.4499 31.4414 80.11 31.5117Q79.946 31.5586 79.776 31.582Q79.6061 31.6055 79.4186 31.6523Q79.2487 31.6758 79.0788 31.6758Q78.9147 31.6758 78.7214 31.6758L77.4967 31.6758Q77.0632 31.7051 76.6413 31.7051Q76.2253 31.7051 75.8151 31.7051Q75.8385 32.4492 75.8385 33.2988Q75.8385 34.1484 75.8268 35.2793Q75.8151 36.4043 75.8034 37.8926Q75.7917 39.3809 75.7917 41.3496L75.7917 43.1719Q75.7917 43.4121 75.8151 43.5352Q75.8151 43.6289 75.8151 43.7168Q75.8151 43.7988 75.7917 43.916Q75.7448 44.1328 75.7214 44.4199Q75.7214 44.543 75.6979 44.6543Q75.6745 44.7598 75.6217 44.877Q75.528 44.9766 75.528 45.0234L75.4577 45.1641Q75.3346 45.4043 75.0007 45.6211Q74.4733 45.8848 73.8229 45.7441Q73.4186 45.6973 73.2018 45.5273Q72.985 45.3105 72.8854 45.0938Q72.7448 44.8301 72.7214 44.5898Q72.6452 44.373 72.6452 44.1328L72.6452 31.7988Q72.5046 31.7988 72.0475 31.7988Q71.5905 31.7988 71.0749 31.7871Q70.5592 31.7754 70.1022 31.752Q69.6452 31.7285 69.4811 31.7051Q69.3346 31.6758 69.0358 31.6289Q68.737 31.582 68.5436 31.5352Q68.0397 31.3887 67.7526 31.0781Q67.4889 30.7676 67.4889 30.3809Q67.4889 30.2402 67.4889 30.0996Q67.4889 29.9531 67.5358 29.8301Q67.6061 29.543 67.9225 29.3496Q68.0163 29.2793 68.2214 29.1738Q68.4264 29.0625 68.6139 29.0156Q68.9069 28.916 69.3346 28.8691Q69.528 28.8457 69.7214 28.8457Q69.9147 28.8457 70.1257 28.8457Q70.9694 28.8457 71.7253 28.8457Q72.4811 28.8457 73.319 28.8223Q74.7135 28.7988 76.0905 28.8105Q77.4733 28.8223 78.8385 28.8691Q79.1491 28.8926 79.4362 28.9453Q79.7292 28.9922 80.0163 29.1094Q80.2331 29.1797 80.4206 29.291Q80.6139 29.3965 80.737 29.5664Z" fill-rule="evenodd" fill="#FFFFFF"/>
</svg>
